<?xml version="1.0" encoding="UTF-8" standalone="no"?>
<!DOCTYPE svg PUBLIC "-//W3C//DTD SVG 1.1//EN" "http://www.w3.org/Graphics/SVG/1.1/DTD/svg11.dtd">
<svg width="600px" height="auto" viewBox="0 0 1820 711" version="1.1" xmlns="http://www.w3.org/2000/svg" xmlns:xlink="http://www.w3.org/1999/xlink" xml:space="preserve" xmlns:serif="http://www.serif.com/" style="fill-rule:evenodd;clip-rule:evenodd;stroke-miterlimit:10;">
    <g transform="matrix(1,0,0,1,-25,-25.8414)">
        <g transform="matrix(1,0,0,1,-25,-43.71)">
            <g transform="matrix(2.15347,0,0,-2.15347,530.18,309.664)">
                <g transform="matrix(0.464366,0,0,-0.464366,-222.979,111.5)">
                    <path d="M509.252,93.676L509.252,119.518" style="fill:none;fill-rule:nonzero;stroke:rgb(61,168,222);stroke-width:6.46px;"/>
                    <path d="M610.465,164.741L610.465,190.582" style="fill:none;fill-rule:nonzero;stroke:rgb(61,168,222);stroke-width:6.46px;"/>
                    <path d="M509.252,106.597L538.324,106.597C552.68,106.597 559.859,113.775 559.859,128.132L559.859,156.127C559.859,170.483 567.037,177.662 581.393,177.662L610.465,177.662" style="fill:none;fill-rule:nonzero;stroke:rgb(61,168,222);stroke-width:6.46px;"/>
                </g>
            </g>
        </g>
        <g transform="matrix(1,0,0,1,-25,-43.71)">
            <g transform="matrix(2.15347,0,0,-2.15347,1244.95,309.664)">
                <g transform="matrix(0.464366,0,0,-0.464366,-554.896,111.5)">
                    <path d="M1224.03,93.676L1224.03,119.518" style="fill:none;fill-rule:nonzero;stroke:rgb(61,168,222);stroke-width:6.46px;"/>
                    <path d="M1325.24,171.201L1312.32,177.662L1325.24,184.122L1325.24,171.201Z" style="fill:rgb(61,168,222);fill-rule:nonzero;stroke:rgb(61,168,222);stroke-width:6.46px;"/>
                    <path d="M1224.03,106.597L1253.1,106.597C1267.45,106.597 1274.63,113.775 1274.63,128.132L1274.63,156.127C1274.63,170.483 1281.81,177.662 1296.17,177.662L1312.32,177.662" style="fill:none;fill-rule:nonzero;stroke:rgb(61,168,222);stroke-width:6.46px;"/>
                </g>
            </g>
        </g>
        <g transform="matrix(1,0,0,1,-25,-43.71)">
            <g transform="matrix(2.15347,0,0,-2.15347,50,140.616)">
                <rect x="0" y="0" width="234.979" height="33" style="fill:rgb(255,173,39);"/>
            </g>
        </g>
        <g transform="matrix(1,0,0,1,-25,-43.71)">
            <g transform="matrix(2.15347,0,0,-2.15347,50,211.681)">
                <rect x="0" y="0" width="234.979" height="33" style="fill:rgb(64,64,64);"/>
            </g>
        </g>
        <g transform="matrix(1,0,0,1,-25,-43.71)">
            <g transform="matrix(2.15347,0,0,-2.15347,50,282.745)">
                <rect x="0" y="0" width="234.979" height="33" style="fill:rgb(48,48,48);"/>
            </g>
        </g>
        <g transform="matrix(1,0,0,1,-25,-43.71)">
            <g transform="matrix(2.15347,0,0,-2.15347,50,353.81)">
                <rect x="0" y="0" width="234.979" height="33" style="fill:rgb(48,48,48);"/>
            </g>
        </g>
        <g transform="matrix(1,0,0,1,-25,-43.71)">
            <g transform="matrix(2.15347,0,0,-2.15347,50,424.875)">
                <rect x="0" y="0" width="234.979" height="33" style="fill:rgb(48,48,48);"/>
            </g>
        </g>
        <g transform="matrix(1,0,0,1,-25,-43.71)">
            <g transform="matrix(2.15347,0,0,-2.15347,50,495.939)">
                <rect x="0" y="0" width="234.979" height="33" style="fill:rgb(48,48,48);"/>
            </g>
        </g>
        <g transform="matrix(1,0,0,1,-25,-43.71)">
            <g transform="matrix(2.15347,0,0,-2.15347,50,567.004)">
                <rect x="0" y="0" width="234.979" height="33" style="fill:rgb(48,48,48);"/>
            </g>
        </g>
        <g transform="matrix(1,0,0,1,-25,-43.71)">
            <g transform="matrix(2.15347,0,0,-2.15347,50,638.069)">
                <rect x="0" y="0" width="234.979" height="33" style="fill:rgb(48,48,48);"/>
            </g>
        </g>
        <g transform="matrix(1,0,0,1,-25,-43.71)">
            <g transform="matrix(2.15347,0,0,-2.15347,50,709.133)">
                <rect x="0" y="0" width="234.979" height="33" style="fill:rgb(48,48,48);"/>
            </g>
        </g>
        <g transform="matrix(1,0,0,1,-25,-43.71)">
            <g transform="matrix(2.15347,0,0,-2.15347,663.695,140.616)">
                <rect x="0" y="0" width="281.917" height="33" style="fill:rgb(255,173,39);"/>
            </g>
        </g>
        <g transform="matrix(1,0,0,1,-25,-43.71)">
            <g transform="matrix(2.15347,0,0,-2.15347,663.695,211.681)">
                <rect x="0" y="0" width="281.917" height="33" style="fill:rgb(64,64,64);"/>
            </g>
        </g>
        <g transform="matrix(1,0,0,1,-25,-43.71)">
            <g transform="matrix(2.15347,0,0,-2.15347,663.695,282.745)">
                <rect x="0" y="0" width="281.917" height="33" style="fill:rgb(64,64,64);"/>
            </g>
        </g>
        <g transform="matrix(1,0,0,1,-25,-43.71)">
            <g transform="matrix(2.15347,0,0,-2.15347,663.695,353.81)">
                <rect x="0" y="0" width="281.917" height="33" style="fill:rgb(48,48,48);"/>
            </g>
        </g>
        <g transform="matrix(1,0,0,1,-25,-43.71)">
            <g transform="matrix(2.15347,0,0,-2.15347,663.695,424.875)">
                <rect x="0" y="0" width="281.917" height="33" style="fill:rgb(48,48,48);"/>
            </g>
        </g>
        <g transform="matrix(1,0,0,1,-25,-43.71)">
            <g transform="matrix(2.15347,0,0,-2.15347,663.695,495.939)">
                <rect x="0" y="0" width="281.917" height="33" style="fill:rgb(48,48,48);"/>
            </g>
        </g>
        <g transform="matrix(1,0,0,1,-25,-43.71)">
            <g transform="matrix(2.15347,0,0,-2.15347,663.695,567.004)">
                <rect x="0" y="0" width="281.917" height="33" style="fill:rgb(48,48,48);"/>
            </g>
        </g>
        <g transform="matrix(1,0,0,1,-25,-43.71)">
            <g transform="matrix(2.15347,0,0,-2.15347,663.695,638.069)">
                <rect x="0" y="0" width="281.917" height="33" style="fill:rgb(48,48,48);"/>
            </g>
        </g>
        <g transform="matrix(1,0,0,1,-25,-43.71)">
            <g transform="matrix(2.15347,0,0,-2.15347,663.695,709.133)">
                <rect x="0" y="0" width="281.917" height="33" style="fill:rgb(48,48,48);"/>
            </g>
        </g>
        <g transform="matrix(1,0,0,1,-25,-43.71)">
            <g transform="matrix(2.15347,0,0,-2.15347,663.695,780.198)">
                <rect x="0" y="0" width="281.917" height="33" style="fill:rgb(48,48,48);"/>
            </g>
        </g>
        <g transform="matrix(1,0,0,1,-25,-43.71)">
            <g transform="matrix(2.15347,0,0,-2.15347,1378.47,140.616)">
                <rect x="0" y="0" width="228.25" height="33" style="fill:rgb(255,173,39);"/>
            </g>
        </g>
        <g transform="matrix(1,0,0,1,-25,-43.71)">
            <g transform="matrix(2.15347,0,0,-2.15347,1378.47,282.732)">
                <rect x="0" y="0" width="228.25" height="33" style="fill:rgb(64,64,64);"/>
            </g>
        </g>
        <g transform="matrix(1,0,0,1,-25,-43.71)">
            <g transform="matrix(2.15347,0,0,-2.15347,1378.47,211.681)">
                <rect x="0" y="0" width="228.25" height="33" style="fill:rgb(48,48,48);"/>
            </g>
        </g>
        <g transform="matrix(1,0,0,1,-25,-43.71)">
            <g transform="matrix(2.15347,0,0,-2.15347,1378.47,353.796)">
                <rect x="0" y="0" width="228.25" height="33" style="fill:rgb(48,48,48);"/>
            </g>
        </g>
        <g transform="matrix(1,0,0,1,-25,-43.71)">
            <g transform="matrix(2.15347,0,0,-2.15347,1378.47,424.861)">
                <rect x="0" y="0" width="228.25" height="33" style="fill:rgb(48,48,48);"/>
            </g>
        </g>
        <g transform="matrix(1,0,0,1,-25,-43.71)">
            <g transform="matrix(2.15347,0,0,-2.15347,1378.47,495.926)">
                <rect x="0" y="0" width="228.25" height="33" style="fill:rgb(48,48,48);"/>
            </g>
        </g>
        <g transform="matrix(1,0,0,1,-25,-43.71)">
            <g transform="matrix(1,0,0,1,2.27374e-13,-109.871)">
                <text x="71.535px" y="227.885px" style="font-family:'Quicksand-Bold', 'Quicksand';font-weight:700;font-size:27.995px;fill:rgb(32,32,32);">User (djang<tspan x="227.363px " y="227.885px ">o</tspan>.contrib.a<tspan x="371.546px " y="227.885px ">u</tspan>th)</text>
                <text x="71.535px" y="298.95px" style="font-family:'Quicksand-Bold', 'Quicksand';font-weight:700;font-size:27.995px;fill:rgb(215,215,217);">id</text>
            </g>
        </g>
        <g transform="matrix(1,0,0,1,-25,-43.71)">
            <g transform="matrix(1,0,0,1,2.41585e-13,-115.125)">
                <text x="495.41px" y="298.949px" style="font-family:'Quicksand-Bold', 'Quicksand';font-weight:700;font-size:27.995px;fill:rgb(215,215,217);">int</text>
            </g>
        </g>
        <g transform="matrix(1,0,0,1,-25,-43.71)">
            <g transform="matrix(1,0,0,1,1.27898e-13,-115.125)">
                <text x="71.535px" y="370px" style="font-family:'Quicksand-Regular', 'Quicksand';font-size:27.995px;fill:rgb(215,215,217);">ﬁrst_name</text>
            </g>
        </g>
        <g transform="matrix(1,0,0,1,-25,-43.71)">
            <g transform="matrix(1,0,0,1,2.41585e-13,-115.125)">
                <text x="411.2px" y="370px" style="font-family:'Quicksand-Regular', 'Quicksand';font-size:27.995px;fill:rgb(215,215,217);">CharFiel<tspan x="516.552px " y="370px ">d</tspan></text>
            </g>
        </g>
        <g transform="matrix(1,0,0,1,-25,-43.71)">
            <g transform="matrix(1,0,0,1,1.27898e-13,-115.125)">
                <text x="71.535px" y="441.065px" style="font-family:'Quicksand-Regular', 'Quicksand';font-size:27.995px;fill:rgb(215,215,217);">last_name</text>
            </g>
        </g>
        <g transform="matrix(1,0,0,1,-25,-43.71)">
            <g transform="matrix(1,0,0,1,2.41585e-13,-115.125)">
                <text x="411.2px" y="441.065px" style="font-family:'Quicksand-Regular', 'Quicksand';font-size:27.995px;fill:rgb(215,215,217);">CharFiel<tspan x="516.552px " y="441.065px ">d</tspan></text>
            </g>
        </g>
        <g transform="matrix(1,0,0,1,-25,-43.71)">
            <g transform="matrix(1,0,0,1,1.27898e-13,-115.125)">
                <text x="71.535px" y="512.13px" style="font-family:'Quicksand-Regular', 'Quicksand';font-size:27.995px;fill:rgb(215,215,217);">username</text>
            </g>
        </g>
        <g transform="matrix(1,0,0,1,-25,-43.71)">
            <g transform="matrix(1,0,0,1,2.41585e-13,-115.125)">
                <text x="411.2px" y="512.13px" style="font-family:'Quicksand-Regular', 'Quicksand';font-size:27.995px;fill:rgb(215,215,217);">CharFiel<tspan x="516.552px " y="512.13px ">d</tspan></text>
            </g>
        </g>
        <g transform="matrix(1,0,0,1,-25,-43.71)">
            <g transform="matrix(1,0,0,1,1.27898e-13,-115.125)">
                <text x="71.535px" y="583.194px" style="font-family:'Quicksand-Regular', 'Quicksand';font-size:27.995px;fill:rgb(215,215,217);">passwor<tspan x="179.354px " y="583.194px ">d</tspan></text>
            </g>
        </g>
        <g transform="matrix(1,0,0,1,-25,-43.71)">
            <g transform="matrix(1,0,0,1,2.41585e-13,-115.125)">
                <text x="411.2px" y="583.194px" style="font-family:'Quicksand-Regular', 'Quicksand';font-size:27.995px;fill:rgb(215,215,217);">CharFiel<tspan x="516.552px " y="583.194px ">d</tspan></text>
            </g>
        </g>
        <g transform="matrix(1,0,0,1,-25,-43.71)">
            <g transform="matrix(1,0,0,1,1.27898e-13,-115.125)">
                <text x="71.535px" y="654.259px" style="font-family:'Quicksand-Regular', 'Quicksand';font-size:27.995px;fill:rgb(215,215,217);">email</text>
            </g>
        </g>
        <g transform="matrix(1,0,0,1,-25,-43.71)">
            <g transform="matrix(1,0,0,1,2.41585e-13,-115.125)">
                <text x="401.779px" y="654.259px" style="font-family:'Quicksand-Regular', 'Quicksand';font-size:27.995px;fill:rgb(215,215,217);">EmailFiel<tspan x="516.032px " y="654.259px ">d</tspan></text>
            </g>
        </g>
        <g transform="matrix(1,0,0,1,-25,-43.71)">
            <g transform="matrix(1,0,0,1,1.27898e-13,-115.125)">
                <path d="M156.622,704.719C156.902,704.719 157.206,704.747 157.532,704.803C157.859,704.859 158.143,704.957 158.386,705.097C158.629,705.237 158.75,705.447 158.75,705.727C158.75,705.932 158.675,706.114 158.526,706.273C158.377,706.432 158.209,706.511 158.022,706.511C157.835,706.511 157.602,706.46 157.322,706.357C157.042,706.254 156.744,706.203 156.426,706.203C156.034,706.203 155.699,706.292 155.419,706.469C155.139,706.646 154.924,706.898 154.775,707.225C154.625,707.551 154.551,707.948 154.551,708.415L154.551,724.484C154.551,724.708 154.471,724.904 154.313,725.072C154.154,725.24 153.953,725.324 153.711,725.324C153.468,725.324 153.268,725.24 153.109,725.072C152.95,724.904 152.871,724.708 152.871,724.484L152.871,708.415C152.871,707.22 153.221,706.306 153.921,705.671C154.621,705.037 155.521,704.719 156.622,704.719ZM157.686,711.298C157.91,711.298 158.097,711.373 158.246,711.522C158.395,711.671 158.47,711.858 158.47,712.082C158.47,712.306 158.395,712.493 158.246,712.642C158.097,712.791 157.91,712.866 157.686,712.866L150.827,712.866C150.622,712.866 150.44,712.787 150.281,712.628C150.123,712.469 150.044,712.287 150.044,712.082C150.044,711.839 150.123,711.648 150.281,711.508C150.44,711.368 150.622,711.298 150.827,711.298L157.686,711.298ZM166.505,704.719C166.785,704.719 167.088,704.747 167.415,704.803C167.741,704.859 168.026,704.957 168.268,705.097C168.511,705.237 168.632,705.447 168.632,705.727C168.632,705.932 168.558,706.114 168.408,706.273C168.259,706.432 168.091,706.511 167.904,706.511C167.718,706.511 167.484,706.46 167.205,706.357C166.925,706.254 166.626,706.203 166.309,706.203C165.917,706.203 165.581,706.292 165.301,706.469C165.021,706.646 164.806,706.898 164.657,707.225C164.508,707.551 164.433,707.948 164.433,708.415L164.433,724.484C164.433,724.708 164.354,724.904 164.195,725.072C164.036,725.24 163.836,725.324 163.593,725.324C163.351,725.324 163.15,725.24 162.991,725.072C162.833,724.904 162.753,724.708 162.753,724.484L162.753,708.415C162.753,707.22 163.103,706.306 163.803,705.671C164.503,705.037 165.404,704.719 166.505,704.719ZM167.568,711.298C167.792,711.298 167.979,711.373 168.128,711.522C168.278,711.671 168.352,711.858 168.352,712.082C168.352,712.306 168.278,712.493 168.128,712.642C167.979,712.791 167.792,712.866 167.568,712.866L160.71,712.866C160.504,712.866 160.322,712.787 160.164,712.628C160.005,712.469 159.926,712.287 159.926,712.082C159.926,711.839 160.005,711.648 160.164,711.508C160.322,711.368 160.504,711.298 160.71,711.298L167.568,711.298Z" style="fill:rgb(215,215,217);"/>
                <text x="71.535px" y="725.324px" style="font-family:'Quicksand-Regular', 'Quicksand';font-size:27.995px;fill:rgb(215,215,217);">is<tspan x="90.799px 109.543px 122.745px " y="725.324px 725.324px 725.324px ">_st</tspan>a</text>
            </g>
        </g>
        <g transform="matrix(1,0,0,1,-25,-43.71)">
            <g transform="matrix(1,0,0,1,2.41585e-13,-115.125)">
                <text x="365.753px" y="725.324px" style="font-family:'Quicksand-Regular', 'Quicksand';font-size:27.995px;fill:rgb(215,215,217);">Bool<tspan x="423.411px 439.085px " y="725.324px 725.324px ">ea</tspan>nFiel<tspan x="515.66px " y="725.324px ">d</tspan></text>
            </g>
        </g>
        <g transform="matrix(1,0,0,1,-25,-43.71)">
            <g transform="matrix(1,0,0,1,1.27898e-13,-115.125)">
                <text x="71.535px" y="796.388px" style="font-family:'Quicksand-Regular', 'Quicksand';font-size:27.995px;fill:rgb(215,215,217);">is_superuser</text>
            </g>
        </g>
        <g transform="matrix(1,0,0,1,-25,-43.71)">
            <g transform="matrix(1,0,0,1,2.41585e-13,-115.125)">
                <text x="365.753px" y="796.388px" style="font-family:'Quicksand-Regular', 'Quicksand';font-size:27.995px;fill:rgb(215,215,217);">Bool<tspan x="423.411px 439.085px " y="796.388px 796.388px ">ea</tspan>nFiel<tspan x="515.66px " y="796.388px ">d</tspan></text>
            </g>
        </g>
        <g transform="matrix(1,0,0,1,-25,-43.71)">
            <g transform="matrix(1,0,0,1,2.41585e-13,-115.125)">
                <text x="685.23px" y="227.885px" style="font-family:'Quicksand-Bold', 'Quicksand';font-weight:700;font-size:27.995px;fill:rgb(32,32,32);">User<tspan x="746.001px " y="227.885px ">A</tspan>ccount</text>
                <text x="685.23px" y="298.95px" style="font-family:'Quicksand-Bold', 'Quicksand';font-weight:700;font-size:27.995px;fill:rgb(215,215,217);">id</text>
            </g>
        </g>
        <g transform="matrix(1,0,0,1,-25,-43.71)">
            <g transform="matrix(1,0,0,1,2.41585e-13,-115.125)">
                <text x="1210.18px" y="298.949px" style="font-family:'Quicksand-Bold', 'Quicksand';font-weight:700;font-size:27.995px;fill:rgb(215,215,217);">int</text>
            </g>
        </g>
        <g transform="matrix(1,0,0,1,-25,-43.71)">
            <g transform="matrix(1,0,0,1,2.41585e-13,-115.125)">
                <text x="685.23px" y="370px" style="font-family:'Quicksand-Regular', 'Quicksand';font-size:27.995px;fill:rgb(215,215,217);">user</text>
            </g>
        </g>
        <g transform="matrix(1,0,0,1,-25,-43.71)">
            <g transform="matrix(1,0,0,1,2.41585e-13,-115.125)">
                <text x="1046.25px" y="370px" style="font-family:'Quicksand-Regular', 'Quicksand';font-size:27.995px;fill:rgb(215,215,217);">O<tspan x="1067.95px 1084.39px 1098.95px 1112.76px 1129.67px 1151.38px 1167.82px 1183.64px 1199.74px 1205.99px 1221.81px " y="370px 370px 370px 370px 370px 370px 370px 370px 370px 370px 370px ">neToOneFiel</tspan>d</text>
            </g>
        </g>
        <g transform="matrix(1,0,0,1,-25,-43.71)">
            <g transform="matrix(1,0,0,1,7.10543e-14,-115.125)">
                <text x="685.23px" y="441.065px" style="font-family:'Quicksand-Regular', 'Quicksand';font-size:27.995px;fill:rgb(215,215,217);">defa<tspan x="744.094px " y="441.065px ">u</tspan>lt_add<tspan x="845.084px 855.244px " y="441.065px 441.065px ">re</tspan>ss_1</text>
            </g>
        </g>
        <g transform="matrix(1,0,0,1,-25,-43.71)">
            <g transform="matrix(1,0,0,1,2.41585e-13,-115.125)">
                <text x="1125.98px" y="441.065px" style="font-family:'Quicksand-Regular', 'Quicksand';font-size:27.995px;fill:rgb(215,215,217);">CharFiel<tspan x="1231.33px " y="441.065px ">d</tspan></text>
            </g>
        </g>
        <g transform="matrix(1,0,0,1,-25,-43.71)">
            <g transform="matrix(1,0,0,1,7.10543e-14,-115.125)">
                <text x="685.23px" y="512.13px" style="font-family:'Quicksand-Regular', 'Quicksand';font-size:27.995px;fill:rgb(215,215,217);">defa<tspan x="744.094px " y="512.13px ">u</tspan>lt_add<tspan x="845.084px 855.244px " y="512.13px 512.13px ">re</tspan>ss_2</text>
            </g>
        </g>
        <g transform="matrix(1,0,0,1,-25,-43.71)">
            <g transform="matrix(1,0,0,1,2.41585e-13,-115.125)">
                <text x="1125.98px" y="512.13px" style="font-family:'Quicksand-Regular', 'Quicksand';font-size:27.995px;fill:rgb(215,215,217);">CharFiel<tspan x="1231.33px " y="512.13px ">d</tspan></text>
            </g>
        </g>
        <g transform="matrix(1,0,0,1,-25,-43.71)">
            <g transform="matrix(1,0,0,1,7.10543e-14,-115.125)">
                <text x="685.23px" y="583.194px" style="font-family:'Quicksand-Regular', 'Quicksand';font-size:27.995px;fill:rgb(215,215,217);">defa<tspan x="744.096px " y="583.194px ">u</tspan>lt_t<tspan x="803.885px " y="583.194px ">o</tspan>wn</text>
            </g>
        </g>
        <g transform="matrix(1,0,0,1,-25,-43.71)">
            <g transform="matrix(1,0,0,1,2.41585e-13,-115.125)">
                <text x="1125.98px" y="583.194px" style="font-family:'Quicksand-Regular', 'Quicksand';font-size:27.995px;fill:rgb(215,215,217);">CharFiel<tspan x="1231.33px " y="583.194px ">d</tspan></text>
            </g>
        </g>
        <g transform="matrix(1,0,0,1,-25,-43.71)">
            <g transform="matrix(1,0,0,1,7.10543e-14,-115.125)">
                <text x="685.23px" y="654.259px" style="font-family:'Quicksand-Regular', 'Quicksand';font-size:27.995px;fill:rgb(215,215,217);">defa<tspan x="744.096px " y="654.259px ">u</tspan>lt_count<tspan x="867.174px " y="654.259px ">y</tspan></text>
            </g>
        </g>
        <g transform="matrix(1,0,0,1,-25,-43.71)">
            <g transform="matrix(1,0,0,1,2.41585e-13,-115.125)">
                <text x="1125.98px" y="654.259px" style="font-family:'Quicksand-Regular', 'Quicksand';font-size:27.995px;fill:rgb(215,215,217);">CharFiel<tspan x="1231.33px " y="654.259px ">d</tspan></text>
            </g>
        </g>
        <g transform="matrix(1,0,0,1,-25,-43.71)">
            <g transform="matrix(1,0,0,1,7.10543e-14,-115.125)">
                <text x="685.23px" y="725.324px" style="font-family:'Quicksand-Regular', 'Quicksand';font-size:27.995px;fill:rgb(215,215,217);">defa<tspan x="744.096px " y="725.324px ">u</tspan>lt_post<tspan x="850.518px " y="725.324px ">c</tspan>ode</text>
            </g>
        </g>
        <g transform="matrix(1,0,0,1,-25,-43.71)">
            <g transform="matrix(1,0,0,1,2.41585e-13,-115.125)">
                <text x="1125.98px" y="725.324px" style="font-family:'Quicksand-Regular', 'Quicksand';font-size:27.995px;fill:rgb(215,215,217);">CharFiel<tspan x="1231.33px " y="725.324px ">d</tspan></text>
            </g>
        </g>
        <g transform="matrix(1,0,0,1,-25,-43.71)">
            <g transform="matrix(1,0,0,1,7.10543e-14,-115.125)">
                <text x="685.23px" y="796.388px" style="font-family:'Quicksand-Regular', 'Quicksand';font-size:27.995px;fill:rgb(215,215,217);">defa<tspan x="744.097px " y="796.388px ">u</tspan>lt_count<tspan x="867.176px " y="796.388px ">r</tspan>y</text>
            </g>
        </g>
        <g transform="matrix(1,0,0,1,-25,-43.71)">
            <g transform="matrix(1,0,0,1,2.41585e-13,-115.125)">
                <text x="1083.53px" y="796.388px" style="font-family:'Quicksand-Regular', 'Quicksand';font-size:27.995px;fill:rgb(215,215,217);">CountryFiel<tspan x="1230.29px " y="796.388px ">d</tspan></text>
            </g>
        </g>
        <g transform="matrix(1,0,0,1,-25,-43.71)">
            <g transform="matrix(1,0,0,1,7.10543e-14,-115.125)">
                <text x="685.23px" y="867.453px" style="font-family:'Quicksand-Regular', 'Quicksand';font-size:27.995px;fill:rgb(215,215,217);">defa<tspan x="744.091px " y="867.453px ">u</tspan>lt_ph<tspan x="827.274px " y="867.453px ">o</tspan>ne_number</text>
            </g>
        </g>
        <g transform="matrix(1,0,0,1,-25,-43.71)">
            <g transform="matrix(1,0,0,1,2.41585e-13,-115.125)">
                <text x="1125.98px" y="867.453px" style="font-family:'Quicksand-Regular', 'Quicksand';font-size:27.995px;fill:rgb(215,215,217);">CharFiel<tspan x="1231.33px " y="867.453px ">d</tspan></text>
            </g>
        </g>
        <g transform="matrix(1,0,0,1,-25,-43.71)">
            <g transform="matrix(1,0,0,1,-6.6791e-13,-44.0744)">
                <text x="1400px" y="298.95px" style="font-family:'Quicksand-Regular', 'Quicksand';font-size:27.995px;fill:rgb(215,215,217);">user_account</text>
            </g>
        </g>
        <g transform="matrix(1,0,0,1,-25,-43.71)">
            <g transform="matrix(1,0,0,1,2.41585e-13,-115.125)">
                <text x="1400px" y="227.885px" style="font-family:'Quicksand-Bold', 'Quicksand';font-weight:700;font-size:27.995px;fill:rgb(32,32,32);">Dr<tspan x="1431.84px 1449.11px " y="227.885px 227.885px ">aw</tspan>ing</text>
                <text x="1400px" y="298.95px" style="font-family:'Quicksand-Bold', 'Quicksand';font-weight:700;font-size:27.995px;fill:rgb(215,215,217);">id</text>
            </g>
        </g>
        <g transform="matrix(1,0,0,1,-25,-43.71)">
            <g transform="matrix(1,0,0,1,-6.6791e-13,-44.0744)">
                <text x="1703.69px" y="298.936px" style="font-family:'Quicksand-Regular', 'Quicksand';font-size:27.995px;fill:rgb(215,215,217);">F<tspan x="1719.11px 1735.77px 1745.93px " y="298.936px 298.936px 298.936px ">ore</tspan>ignK<tspan x="1819.32px 1834.74px " y="298.936px 298.936px ">ey</tspan></text>
            </g>
        </g>
        <g transform="matrix(1,0,0,1,-25,-43.71)">
            <g transform="matrix(1,0,0,1,-7.35048,-115.125)">
                <text x="1822.59px" y="298.936px" style="font-family:'Quicksand-Bold', 'Quicksand';font-weight:700;font-size:27.995px;fill:rgb(215,215,217);">int</text>
            </g>
        </g>
        <g transform="matrix(1,0,0,1,-25,-43.71)">
            <g transform="matrix(1,0,0,1,-6.6791e-13,-44.0744)">
                <text x="1400px" y="370px" style="font-family:'Quicksand-Regular', 'Quicksand';font-size:27.995px;fill:rgb(215,215,217);">imag<tspan x="1465.16px " y="370px ">e</tspan></text>
            </g>
        </g>
        <g transform="matrix(1,0,0,1,-25,-43.71)">
            <g transform="matrix(1,0,0,1,-6.6791e-13,-44.0744)">
                <text x="1706.79px" y="370px" style="font-family:'Quicksand-Regular', 'Quicksand';font-size:27.995px;fill:rgb(215,215,217);">Imag<tspan x="1772.96px " y="370px ">e</tspan>Fiel<tspan x="1832.07px " y="370px ">d</tspan></text>
            </g>
        </g>
        <g transform="matrix(1,0,0,1,-25,-43.71)">
            <g transform="matrix(1,0,0,1,-6.6791e-13,-44.0744)">
                <text x="1400px" y="441.065px" style="font-family:'Quicksand-Regular', 'Quicksand';font-size:27.995px;fill:rgb(215,215,217);">titl<tspan x="1431.13px " y="441.065px ">e</tspan></text>
            </g>
        </g>
        <g transform="matrix(1,0,0,1,-25,-43.71)">
            <g transform="matrix(1,0,0,1,-6.6791e-13,-44.0744)">
                <text x="1725.18px" y="441.065px" style="font-family:'Quicksand-Regular', 'Quicksand';font-size:27.995px;fill:rgb(215,215,217);">CharFiel<tspan x="1830.53px " y="441.065px ">d</tspan></text>
            </g>
        </g>
        <g transform="matrix(1,0,0,1,-25,-43.71)">
            <g transform="matrix(1,0,0,1,-6.6791e-13,-44.0744)">
                <text x="1400px" y="512.13px" style="font-family:'Quicksand-Regular', 'Quicksand';font-size:27.995px;fill:rgb(215,215,217);">s<tspan x="1413.36px 1429.87px 1444.54px " y="512.13px 512.13px 512.13px ">ave</tspan>_sl<tspan x="1498.05px " y="512.13px ">o</tspan>t</text>
            </g>
        </g>
        <g transform="matrix(1,0,0,1,-25,-43.71)">
            <g transform="matrix(1,0,0,1,-6.6791e-13,-44.0744)">
                <text x="1694px" y="512.13px" style="font-family:'Quicksand-Regular', 'Quicksand';font-size:27.995px;fill:rgb(215,215,217);">Int<tspan x="1726.52px 1741.95px 1758.74px " y="512.13px 512.13px 512.13px ">ege</tspan>rFiel<tspan x="1828.64px " y="512.13px ">d</tspan></text>
            </g>
        </g>
    </g>
</svg>
