<?xml version="1.0" encoding="UTF-8" standalone="no"?>
<!DOCTYPE svg PUBLIC "-//W3C//DTD SVG 1.1//EN" "http://www.w3.org/Graphics/SVG/1.1/DTD/svg11.dtd">
<svg width="600px" height="auto" viewBox="0 0 772 526" version="1.1" xmlns="http://www.w3.org/2000/svg" xmlns:xlink="http://www.w3.org/1999/xlink" xml:space="preserve" xmlns:serif="http://www.serif.com/" style="fill-rule:evenodd;clip-rule:evenodd;stroke-miterlimit:10;">
    <g transform="matrix(1,0,0,1,-0.217944,-0.98243)">
        <g transform="matrix(1,0,0,1,-348.218,-24.9824)">
            <g transform="matrix(0.901301,0,0,-0.901301,797.909,481.794)">
                <g transform="matrix(1.10951,0,0,-1.10951,-498.693,505.745)">
                    <path d="M462.415,99.847L470.921,104.1L462.415,108.353L462.415,99.847Z" style="fill:rgb(61,168,222);fill-rule:nonzero;stroke:rgb(61,168,222);stroke-width:4.25px;"/>
                    <path d="M514.94,323.883L514.94,340.896" style="fill:none;fill-rule:nonzero;stroke:rgb(61,168,222);stroke-width:4.25px;"/>
                    <path d="M470.921,104.1L475.357,104.1C481.365,104.1 484.37,107.105 484.37,113.113L484.37,323.376C484.37,329.385 487.374,332.389 493.383,332.389L514.94,332.389" style="fill:none;fill-rule:nonzero;stroke:rgb(61,168,222);stroke-width:4.25px;"/>
                </g>
            </g>
        </g>
        <g transform="matrix(1,0,0,1,-348.218,-24.9824)">
            <g transform="matrix(0.901301,0,0,-0.901301,797.909,362.694)">
                <g transform="matrix(1.10951,0,0,-1.10951,-498.693,373.603)">
                    <path d="M462.415,35.784L462.415,52.797" style="fill:none;fill-rule:nonzero;stroke:rgb(61,168,222);stroke-width:4.25px;"/>
                    <path d="M522.178,99.847L513.672,104.1L522.178,108.353L522.178,99.847Z" style="fill:rgb(61,168,222);fill-rule:nonzero;stroke:rgb(61,168,222);stroke-width:4.25px;"/>
                    <path d="M462.415,44.291L483.284,44.291C489.292,44.291 492.297,47.295 492.297,53.304L492.297,95.087C492.297,101.096 495.301,104.1 501.31,104.1L513.672,104.1" style="fill:none;fill-rule:nonzero;stroke:rgb(61,168,222);stroke-width:4.25px;"/>
                </g>
            </g>
        </g>
        <g transform="matrix(1,0,0,1,-348.218,-24.9824)">
            <g transform="matrix(0.901301,0,0,-0.901301,535.756,333.09)">
                <g transform="matrix(1.10951,0,0,-1.10951,-207.833,340.757)">
                    <path d="M200.263,35.784L200.263,52.797" style="fill:none;fill-rule:nonzero;stroke:rgb(61,168,222);stroke-width:4.25px;"/>
                    <path d="M260.026,70.243L251.519,74.496L260.026,78.75L260.026,70.243Z" style="fill:rgb(61,168,222);fill-rule:nonzero;stroke:rgb(61,168,222);stroke-width:4.25px;"/>
                    <path d="M200.263,44.291L221.131,44.291C227.14,44.291 230.144,47.295 230.144,53.304L230.144,65.483C230.144,71.492 233.149,74.496 239.157,74.496L251.519,74.496" style="fill:none;fill-rule:nonzero;stroke:rgb(61,168,222);stroke-width:4.25px;"/>
                </g>
            </g>
        </g>
        <g transform="matrix(1,0,0,1,-348.218,-24.9824)">
            <g transform="matrix(0.901301,0,0,-0.901301,1058.68,481.794)">
                <g transform="matrix(1.10951,0,0,-1.10951,-788.026,505.745)">
                    <path d="M731.806,323.86L731.806,340.873" style="fill:none;fill-rule:nonzero;stroke:rgb(61,168,222);stroke-width:4.25px;"/>
                    <path d="M724.568,138.096L733.074,133.843L724.568,129.59L724.568,138.096Z" style="fill:rgb(61,168,222);fill-rule:nonzero;stroke:rgb(61,168,222);stroke-width:4.25px;"/>
                    <path d="M731.806,332.366L740.769,332.366C746.778,332.366 749.782,329.362 749.782,323.353L749.782,142.856C749.782,136.848 746.778,133.843 740.769,133.843L733.074,133.843" style="fill:none;fill-rule:nonzero;stroke:rgb(61,168,222);stroke-width:4.25px;"/>
                </g>
            </g>
        </g>
        <g transform="matrix(1,0,0,1,-348.218,-24.9824)">
            <g transform="matrix(0.901301,0,0,-0.901301,348.436,55.7078)">
                <rect x="0" y="0" width="219.833" height="33" style="fill:rgb(255,173,39);"/>
            </g>
        </g>
        <g transform="matrix(1,0,0,1,-348.218,-24.9824)">
            <g transform="matrix(0.901301,0,0,-0.901301,348.436,85.4507)">
                <rect x="0" y="0" width="219.833" height="33" style="fill:rgb(64,64,64);"/>
            </g>
        </g>
        <g transform="matrix(1,0,0,1,-348.218,-24.9824)">
            <g transform="matrix(0.901301,0,0,-0.901301,348.436,115.194)">
                <rect x="0" y="0" width="219.833" height="33" style="fill:rgb(48,48,48);"/>
            </g>
        </g>
        <g transform="matrix(1,0,0,1,-348.218,-24.9824)">
            <g transform="matrix(0.901301,0,0,-0.901301,348.436,144.937)">
                <rect x="0" y="0" width="219.833" height="33" style="fill:rgb(48,48,48);"/>
            </g>
        </g>
        <g transform="matrix(1,0,0,1,-348.218,-24.9824)">
            <g transform="matrix(0.901301,0,0,-0.901301,865.502,343.483)">
                <rect x="0" y="0" width="235.896" height="33" style="fill:rgb(255,173,39);"/>
            </g>
        </g>
        <g transform="matrix(1,0,0,1,-348.218,-24.9824)">
            <g transform="matrix(0.901301,0,0,-0.901301,865.502,373.226)">
                <rect x="0" y="0" width="235.896" height="33" style="fill:rgb(64,64,64);"/>
            </g>
        </g>
        <g transform="matrix(1,0,0,1,-348.218,-24.9824)">
            <g transform="matrix(0.901301,0,0,-0.901301,865.502,402.969)">
                <rect x="0" y="0" width="235.896" height="33" style="fill:rgb(48,48,48);"/>
            </g>
        </g>
        <g transform="matrix(1,0,0,1,-348.218,-24.9824)">
            <g transform="matrix(0.901301,0,0,-0.901301,865.502,432.712)">
                <rect x="0" y="0" width="235.896" height="33" style="fill:rgb(48,48,48);"/>
            </g>
        </g>
        <g transform="matrix(1,0,0,1,-348.218,-24.9824)">
            <g transform="matrix(0.901301,0,0,-0.901301,865.502,462.454)">
                <rect x="0" y="0" width="235.896" height="33" style="fill:rgb(48,48,48);"/>
            </g>
        </g>
        <g transform="matrix(1,0,0,1,-348.218,-24.9824)">
            <g transform="matrix(0.901301,0,0,-0.901301,865.502,492.197)">
                <rect x="0" y="0" width="235.896" height="33" style="fill:rgb(48,48,48);"/>
            </g>
        </g>
        <g transform="matrix(1,0,0,1,-348.218,-24.9824)">
            <g transform="matrix(0.901301,0,0,-0.901301,865.502,521.94)">
                <rect x="0" y="0" width="235.896" height="33" style="fill:rgb(48,48,48);"/>
            </g>
        </g>
        <g transform="matrix(1,0,0,1,-348.218,-24.9824)">
            <g transform="matrix(0.901301,0,0,-0.901301,865.502,551.683)">
                <rect x="0" y="0" width="235.896" height="33" style="fill:rgb(48,48,48);"/>
            </g>
        </g>
        <g transform="matrix(1,0,0,1,-348.218,-24.9824)">
            <g transform="matrix(0.901301,0,0,-0.901301,610.588,55.7078)">
                <rect x="0" y="0" width="219.833" height="33" style="fill:rgb(255,173,39);"/>
            </g>
        </g>
        <g transform="matrix(1,0,0,1,-348.218,-24.9824)">
            <g transform="matrix(0.901301,0,0,-0.901301,610.588,85.4507)">
                <rect x="0" y="0" width="219.833" height="33" style="fill:rgb(64,64,64);"/>
            </g>
        </g>
        <g transform="matrix(1,0,0,1,-348.218,-24.9824)">
            <g transform="matrix(0.901301,0,0,-0.901301,610.588,115.194)">
                <rect x="0" y="0" width="219.833" height="33" style="fill:rgb(64,64,64);"/>
            </g>
        </g>
        <g transform="matrix(1,0,0,1,-348.218,-24.9824)">
            <g transform="matrix(0.901301,0,0,-0.901301,610.588,144.937)">
                <rect x="0" y="0" width="219.833" height="33" style="fill:rgb(64,64,64);"/>
            </g>
        </g>
        <g transform="matrix(1,0,0,1,-348.218,-24.9824)">
            <g transform="matrix(0.901301,0,0,-0.901301,610.588,174.68)">
                <rect x="0" y="0" width="219.833" height="33" style="fill:rgb(48,48,48);"/>
            </g>
        </g>
        <g transform="matrix(1,0,0,1,-348.218,-24.9824)">
            <g transform="matrix(0.901301,0,0,-0.901301,610.588,204.422)">
                <rect x="0" y="0" width="219.833" height="33" style="fill:rgb(48,48,48);"/>
            </g>
        </g>
        <g transform="matrix(1,0,0,1,-348.218,-24.9824)">
            <g transform="matrix(0.901301,0,0,-0.901301,610.588,234.165)">
                <rect x="0" y="0" width="219.833" height="33" style="fill:rgb(48,48,48);"/>
            </g>
        </g>
        <g transform="matrix(1,0,0,1,-348.218,-24.9824)">
            <g transform="matrix(0.901301,0,0,-0.901301,610.588,263.908)">
                <rect x="0" y="0" width="219.833" height="33" style="fill:rgb(48,48,48);"/>
            </g>
        </g>
        <g transform="matrix(1,0,0,1,-348.218,-24.9824)">
            <g transform="matrix(0.901301,0,0,-0.901301,872.741,55.7078)">
                <rect x="0" y="0" width="219.833" height="33" style="fill:rgb(255,173,39);"/>
            </g>
        </g>
        <g transform="matrix(1,0,0,1,-348.218,-24.9824)">
            <g transform="matrix(0.901301,0,0,-0.901301,872.741,85.4507)">
                <rect x="0" y="0" width="219.833" height="33" style="fill:rgb(48,48,48);"/>
            </g>
        </g>
        <g transform="matrix(1,0,0,1,-348.218,-24.9824)">
            <g transform="matrix(0.901301,0,0,-0.901301,872.741,115.194)">
                <rect x="0" y="0" width="219.833" height="33" style="fill:rgb(48,48,48);"/>
            </g>
        </g>
        <g transform="matrix(1,0,0,1,-348.218,-24.9824)">
            <g transform="matrix(0.901301,0,0,-0.901301,872.741,144.937)">
                <rect x="0" y="0" width="219.833" height="33" style="fill:rgb(64,64,64);"/>
            </g>
        </g>
        <g transform="matrix(1,0,0,1,-348.218,-24.9824)">
            <g transform="matrix(0.901301,0,0,-0.901301,872.741,174.68)">
                <rect x="0" y="0" width="219.833" height="33" style="fill:rgb(64,64,64);"/>
            </g>
        </g>
        <g transform="matrix(1,0,0,1,-348.218,-24.9824)">
            <g transform="matrix(0.901301,0,0,-0.901301,872.741,204.422)">
                <rect x="0" y="0" width="219.833" height="33" style="fill:rgb(48,48,48);"/>
            </g>
        </g>
        <g transform="matrix(1,0,0,1,-348.218,-24.9824)">
            <g transform="matrix(0.901301,0,0,-0.901301,872.741,234.165)">
                <rect x="0" y="0" width="219.833" height="33" style="fill:rgb(48,48,48);"/>
            </g>
        </g>
        <g transform="matrix(1,0,0,1,-348.218,-24.9824)">
            <g transform="matrix(0.901301,0,0,-0.901301,872.741,263.908)">
                <rect x="0" y="0" width="219.833" height="33" style="fill:rgb(48,48,48);"/>
            </g>
        </g>
        <g transform="matrix(1,0,0,1,-348.218,-24.9824)">
            <g transform="matrix(0.901301,0,0,-0.901301,872.741,293.651)">
                <rect x="0" y="0" width="219.833" height="33" style="fill:rgb(48,48,48);"/>
            </g>
        </g>
        <g transform="matrix(1,0,0,1,-348.218,-24.9824)">
            <g transform="matrix(0.635735,0,0,0.635735,107.374,-94.9599)">
                <text x="393.364px" y="218.658px" style="font-family:'Quicksand-Bold', 'Quicksand';font-weight:700;font-size:18.431px;fill:rgb(32,32,32);">Cate<tspan x="434.442px 445.739px " y="218.658px 218.658px ">go</tspan>ry</text>
                <text x="393.364px" y="265.439px" style="font-family:'Quicksand-Bold', 'Quicksand';font-weight:700;font-size:18.431px;fill:rgb(215,215,217);">id</text>
            </g>
        </g>
        <g transform="matrix(1,0,0,1,-348.218,-24.9824)">
            <g transform="matrix(0.635735,0,0,0.635735,107.374,-94.9599)">
                <text x="647.521px" y="265.443px" style="font-family:'Quicksand-Bold', 'Quicksand';font-weight:700;font-size:18.431px;fill:rgb(215,215,217);">int</text>
            </g>
        </g>
        <g transform="matrix(1,0,0,1,-348.218,-24.9824)">
            <g transform="matrix(0.635735,0,0,0.635735,107.374,-94.9599)">
                <text x="393.364px" y="312.22px" style="font-family:'Quicksand-Regular', 'Quicksand';font-size:18.431px;fill:rgb(215,215,217);">name</text>
            </g>
        </g>
        <g transform="matrix(1,0,0,1,-348.218,-24.9824)">
            <g transform="matrix(0.635735,0,0,0.635735,107.374,-94.9599)">
                <text x="595.508px" y="312.22px" style="font-family:'Quicksand-Regular', 'Quicksand';font-size:18.431px;fill:rgb(215,215,217);">CharFiel<tspan x="664.866px " y="312.22px ">d</tspan></text>
            </g>
        </g>
        <g transform="matrix(1,0,0,1,-348.218,-24.9824)">
            <g transform="matrix(0.635735,0,0,0.635735,107.374,-94.9599)">
                <text x="393.364px" y="359.005px" style="font-family:'Quicksand-Regular', 'Quicksand';font-size:18.431px;fill:rgb(215,215,217);">displa<tspan x="443.242px " y="359.005px ">y</tspan>_name</text>
            </g>
        </g>
        <g transform="matrix(1,0,0,1,-348.218,-24.9824)">
            <g transform="matrix(0.635735,0,0,0.635735,107.374,-94.9599)">
                <text x="595.508px" y="359.005px" style="font-family:'Quicksand-Regular', 'Quicksand';font-size:18.431px;fill:rgb(215,215,217);">CharFiel<tspan x="664.866px " y="359.005px ">d</tspan></text>
            </g>
        </g>
        <g transform="matrix(1,0,0,1,-348.218,-24.9824)">
            <g transform="matrix(0.635735,0,0,0.635735,119.772,-103.124)">
                <text x="1187.2px" y="684.165px" style="font-family:'Quicksand-Bold', 'Quicksand';font-weight:700;font-size:18.431px;fill:rgb(32,32,32);">Pr<tspan x="1205.91px 1217.22px 1229px " y="684.165px 684.165px 684.165px ">odu</tspan>ctImag<tspan x="1301.69px " y="684.165px ">e</tspan></text>
                <text x="1187.2px" y="730.945px" style="font-family:'Quicksand-Bold', 'Quicksand';font-weight:700;font-size:18.431px;fill:rgb(215,215,217);">id</text>
            </g>
        </g>
        <g transform="matrix(1,0,0,1,-348.218,-24.9824)">
            <g transform="matrix(0.635735,0,0,0.635735,119.772,-103.124)">
                <text x="1467.56px" y="730.95px" style="font-family:'Quicksand-Bold', 'Quicksand';font-weight:700;font-size:18.431px;fill:rgb(215,215,217);">int</text>
            </g>
        </g>
        <g transform="matrix(1,0,0,1,-348.218,-24.9824)">
            <g transform="matrix(0.635735,0,0,0.635735,119.772,-103.124)">
                <text x="1187.2px" y="777.726px" style="font-family:'Quicksand-Regular', 'Quicksand';font-size:18.431px;fill:rgb(215,215,217);">imag<tspan x="1230.1px " y="777.726px ">e</tspan></text>
            </g>
        </g>
        <g transform="matrix(1,0,0,1,-348.218,-24.9824)">
            <g transform="matrix(0.635735,0,0,0.635735,119.772,-103.124)">
                <text x="1400.01px" y="777.726px" style="font-family:'Quicksand-Regular', 'Quicksand';font-size:18.431px;fill:rgb(215,215,217);">Imag<tspan x="1443.57px " y="777.726px ">e</tspan>Fiel<tspan x="1482.49px " y="777.726px ">d</tspan></text>
            </g>
        </g>
        <g transform="matrix(1,0,0,1,-348.218,-24.9824)">
            <g transform="matrix(0.635735,0,0,0.635735,119.772,-103.124)">
                <text x="1187.2px" y="824.511px" style="font-family:'Quicksand-Regular', 'Quicksand';font-size:18.431px;fill:rgb(215,215,217);">imag<tspan x="1230.1px " y="824.511px ">e</tspan>_type</text>
            </g>
        </g>
        <g transform="matrix(1,0,0,1,-348.218,-24.9824)">
            <g transform="matrix(0.635735,0,0,0.635735,119.772,-103.124)">
                <text x="1412.12px" y="824.511px" style="font-family:'Quicksand-Regular', 'Quicksand';font-size:18.431px;fill:rgb(215,215,217);">CharFiel<tspan x="1481.47px " y="824.511px ">d</tspan></text>
            </g>
        </g>
        <g transform="matrix(1,0,0,1,-348.218,-24.9824)">
            <g transform="matrix(0.635735,0,0,0.635735,119.772,-103.124)">
                <text x="1187.2px" y="871.296px" style="font-family:'Quicksand-Regular', 'Quicksand';font-size:18.431px;fill:rgb(215,215,217);">name_sl<tspan x="1261.07px 1271.37px " y="871.296px 871.296px ">ug</tspan></text>
            </g>
        </g>
        <g transform="matrix(1,0,0,1,-348.218,-24.9824)">
            <g transform="matrix(0.635735,0,0,0.635735,119.772,-103.124)">
                <text x="1416.72px" y="871.296px" style="font-family:'Quicksand-Regular', 'Quicksand';font-size:18.431px;fill:rgb(215,215,217);">Slu<tspan x="1441.53px " y="871.296px ">g</tspan>Fiel<tspan x="1481.62px " y="871.296px ">d</tspan></text>
            </g>
        </g>
        <g transform="matrix(1,0,0,1,-348.218,-24.9824)">
            <g transform="matrix(0.635735,0,0,0.635735,119.772,-103.124)">
                <text x="1187.2px" y="918.081px" style="font-family:'Quicksand-Regular', 'Quicksand';font-size:18.431px;fill:rgb(215,215,217);">ov<tspan x="1207.73px " y="918.081px ">e</tspan>rla<tspan x="1240.18px " y="918.081px ">y</tspan>_width</text>
            </g>
        </g>
        <g transform="matrix(1,0,0,1,-348.218,-24.9824)">
            <g transform="matrix(0.635735,0,0,0.635735,119.772,-103.124)">
                <text x="1412.12px" y="918.081px" style="font-family:'Quicksand-Regular', 'Quicksand';font-size:18.431px;fill:rgb(215,215,217);">CharFiel<tspan x="1481.47px " y="918.081px ">d</tspan></text>
            </g>
        </g>
        <g transform="matrix(1,0,0,1,-348.218,-24.9824)">
            <g transform="matrix(0.635735,0,0,0.635735,119.772,-103.124)">
                <path d="M1300.23,951.302C1300.41,951.302 1300.61,951.32 1300.82,951.357C1301.04,951.394 1301.23,951.458 1301.39,951.551C1301.55,951.643 1301.63,951.781 1301.63,951.965C1301.63,952.1 1301.58,952.22 1301.48,952.325C1301.38,952.429 1301.27,952.481 1301.15,952.481C1301.02,952.481 1300.87,952.448 1300.69,952.38C1300.5,952.312 1300.31,952.279 1300.1,952.279C1299.84,952.279 1299.62,952.337 1299.43,952.454C1299.25,952.57 1299.11,952.736 1299.01,952.951C1298.91,953.166 1298.86,953.427 1298.86,953.735L1298.86,964.314C1298.86,964.461 1298.81,964.59 1298.7,964.701C1298.6,964.811 1298.47,964.867 1298.31,964.867C1298.15,964.867 1298.02,964.811 1297.91,964.701C1297.81,964.59 1297.76,964.461 1297.76,964.314L1297.76,953.735C1297.76,952.948 1297.99,952.346 1298.45,951.928C1298.91,951.511 1299.5,951.302 1300.23,951.302ZM1300.92,955.633C1301.07,955.633 1301.2,955.682 1301.29,955.78C1301.39,955.879 1301.44,956.002 1301.44,956.149C1301.44,956.296 1301.39,956.419 1301.29,956.518C1301.2,956.616 1301.07,956.665 1300.92,956.665L1296.41,956.665C1296.28,956.665 1296.15,956.613 1296.05,956.508C1295.95,956.404 1295.89,956.284 1295.89,956.149C1295.89,955.989 1295.95,955.863 1296.05,955.771C1296.15,955.679 1296.28,955.633 1296.41,955.633L1300.92,955.633ZM1306.73,951.302C1306.91,951.302 1307.12,951.32 1307.33,951.357C1307.55,951.394 1307.73,951.458 1307.89,951.551C1308.05,951.643 1308.13,951.781 1308.13,951.965C1308.13,952.1 1308.08,952.22 1307.98,952.325C1307.89,952.429 1307.78,952.481 1307.65,952.481C1307.53,952.481 1307.38,952.448 1307.19,952.38C1307.01,952.312 1306.81,952.279 1306.6,952.279C1306.34,952.279 1306.12,952.337 1305.94,952.454C1305.75,952.57 1305.61,952.736 1305.51,952.951C1305.42,953.166 1305.37,953.427 1305.37,953.735L1305.37,964.314C1305.37,964.461 1305.32,964.59 1305.21,964.701C1305.11,964.811 1304.97,964.867 1304.81,964.867C1304.65,964.867 1304.52,964.811 1304.42,964.701C1304.31,964.59 1304.26,964.461 1304.26,964.314L1304.26,953.735C1304.26,952.948 1304.49,952.346 1304.95,951.928C1305.41,951.511 1306.01,951.302 1306.73,951.302ZM1307.43,955.633C1307.58,955.633 1307.7,955.682 1307.8,955.78C1307.9,955.879 1307.95,956.002 1307.95,956.149C1307.95,956.296 1307.9,956.419 1307.8,956.518C1307.7,956.616 1307.58,956.665 1307.43,956.665L1302.92,956.665C1302.78,956.665 1302.66,956.613 1302.56,956.508C1302.45,956.404 1302.4,956.284 1302.4,956.149C1302.4,955.989 1302.45,955.863 1302.56,955.771C1302.66,955.679 1302.78,955.633 1302.92,955.633L1307.43,955.633Z" style="fill:rgb(215,215,217);"/>
                <text x="1187.2px" y="964.867px" style="font-family:'Quicksand-Regular', 'Quicksand';font-size:18.431px;fill:rgb(215,215,217);">ov<tspan x="1207.77px " y="964.867px ">e</tspan>rla<tspan x="1240.31px " y="964.867px ">y</tspan>_x_o<tspan x="1308.41px " y="964.867px ">s</tspan>et</text>
            </g>
        </g>
        <g transform="matrix(1,0,0,1,-348.218,-24.9824)">
            <g transform="matrix(0.635735,0,0,0.635735,119.772,-103.124)">
                <text x="1412.12px" y="964.867px" style="font-family:'Quicksand-Regular', 'Quicksand';font-size:18.431px;fill:rgb(215,215,217);">CharFiel<tspan x="1481.47px " y="964.867px ">d</tspan></text>
            </g>
        </g>
        <g transform="matrix(1,0,0,1,-348.218,-24.9824)">
            <g transform="matrix(0.635735,0,0,0.635735,119.772,-103.124)">
                <path d="M1301.77,998.087C1301.96,998.087 1302.16,998.105 1302.37,998.142C1302.59,998.179 1302.77,998.244 1302.93,998.336C1303.09,998.428 1303.17,998.566 1303.17,998.75C1303.17,998.886 1303.13,999.005 1303.03,999.11C1302.93,999.214 1302.82,999.266 1302.69,999.266C1302.57,999.266 1302.42,999.233 1302.23,999.165C1302.05,999.097 1301.85,999.064 1301.64,999.064C1301.39,999.064 1301.16,999.122 1300.98,999.239C1300.8,999.355 1300.65,999.521 1300.56,999.736C1300.46,999.951 1300.41,1000.21 1300.41,1000.52L1300.41,1011.1C1300.41,1011.25 1300.36,1011.38 1300.25,1011.49C1300.15,1011.6 1300.02,1011.65 1299.86,1011.65C1299.7,1011.65 1299.56,1011.6 1299.46,1011.49C1299.36,1011.38 1299.3,1011.25 1299.3,1011.1L1299.3,1000.52C1299.3,999.733 1299.53,999.131 1299.99,998.713C1300.45,998.296 1301.05,998.087 1301.77,998.087ZM1302.47,1002.42C1302.62,1002.42 1302.74,1002.47 1302.84,1002.57C1302.94,1002.66 1302.99,1002.79 1302.99,1002.93C1302.99,1003.08 1302.94,1003.2 1302.84,1003.3C1302.74,1003.4 1302.62,1003.45 1302.47,1003.45L1297.96,1003.45C1297.82,1003.45 1297.7,1003.4 1297.6,1003.29C1297.49,1003.19 1297.44,1003.07 1297.44,1002.93C1297.44,1002.77 1297.49,1002.65 1297.6,1002.56C1297.7,1002.46 1297.82,1002.42 1297.96,1002.42L1302.47,1002.42ZM1308.28,998.087C1308.46,998.087 1308.66,998.105 1308.88,998.142C1309.09,998.179 1309.28,998.244 1309.44,998.336C1309.6,998.428 1309.68,998.566 1309.68,998.75C1309.68,998.886 1309.63,999.005 1309.53,999.11C1309.43,999.214 1309.32,999.266 1309.2,999.266C1309.08,999.266 1308.92,999.233 1308.74,999.165C1308.56,999.097 1308.36,999.064 1308.15,999.064C1307.89,999.064 1307.67,999.122 1307.49,999.239C1307.3,999.355 1307.16,999.521 1307.06,999.736C1306.96,999.951 1306.91,1000.21 1306.91,1000.52L1306.91,1011.1C1306.91,1011.25 1306.86,1011.38 1306.76,1011.49C1306.65,1011.6 1306.52,1011.65 1306.36,1011.65C1306.2,1011.65 1306.07,1011.6 1305.97,1011.49C1305.86,1011.38 1305.81,1011.25 1305.81,1011.1L1305.81,1000.52C1305.81,999.733 1306.04,999.131 1306.5,998.713C1306.96,998.296 1307.55,998.087 1308.28,998.087ZM1308.98,1002.42C1309.13,1002.42 1309.25,1002.47 1309.35,1002.57C1309.45,1002.66 1309.5,1002.79 1309.5,1002.93C1309.5,1003.08 1309.45,1003.2 1309.35,1003.3C1309.25,1003.4 1309.13,1003.45 1308.98,1003.45L1304.46,1003.45C1304.33,1003.45 1304.21,1003.4 1304.11,1003.29C1304,1003.19 1303.95,1003.07 1303.95,1002.93C1303.95,1002.77 1304,1002.65 1304.11,1002.56C1304.21,1002.46 1304.33,1002.42 1304.46,1002.42L1308.98,1002.42Z" style="fill:rgb(215,215,217);"/>
                <text x="1187.2px" y="1011.65px" style="font-family:'Quicksand-Regular', 'Quicksand';font-size:18.431px;fill:rgb(215,215,217);">ov<tspan x="1207.77px " y="1011.65px ">e</tspan>rla<tspan x="1240.31px " y="1011.65px ">y</tspan>_y_o<tspan x="1309.96px " y="1011.65px ">s</tspan>et</text>
            </g>
        </g>
        <g transform="matrix(1,0,0,1,-348.218,-24.9824)">
            <g transform="matrix(0.635735,0,0,0.635735,119.772,-103.124)">
                <text x="1412.12px" y="1011.65px" style="font-family:'Quicksand-Regular', 'Quicksand';font-size:18.431px;fill:rgb(215,215,217);">CharFiel<tspan x="1481.47px " y="1011.65px ">d</tspan></text>
            </g>
        </g>
        <g transform="matrix(1,0,0,1,-348.218,-24.9824)">
            <g transform="matrix(0.635735,0,0,0.635735,111.156,-65.1126)">
                <text x="799.775px" y="171.709px" style="font-family:'Quicksand-Bold', 'Quicksand';font-weight:700;font-size:18.431px;fill:rgb(32,32,32);">Pr<tspan x="818.483px 829.8px 841.578px " y="171.709px 171.709px 171.709px ">odu</tspan>ct</text>
                <text x="799.775px" y="218.49px" style="font-family:'Quicksand-Bold', 'Quicksand';font-weight:700;font-size:18.431px;fill:rgb(215,215,217);">id</text>
            </g>
        </g>
        <g transform="matrix(1,0,0,1,-348.218,-24.9824)">
            <g transform="matrix(0.635735,0,0,0.635735,111.156,-65.1126)">
                <text x="1053.93px" y="218.494px" style="font-family:'Quicksand-Bold', 'Quicksand';font-weight:700;font-size:18.431px;fill:rgb(215,215,217);">int</text>
            </g>
        </g>
        <g transform="matrix(1,0,0,1,-348.218,-24.9824)">
            <g transform="matrix(0.635735,0,0,0.635735,111.156,-65.1126)">
                <text x="799.775px" y="265.27px" style="font-family:'Quicksand-Regular', 'Quicksand';font-size:18.431px;fill:rgb(215,215,217);">cate<tspan x="836.65px 847.707px " y="265.27px 265.27px ">go</tspan>ry</text>
            </g>
        </g>
        <g transform="matrix(1,0,0,1,-348.218,-24.9824)">
            <g transform="matrix(0.635735,0,0,0.635735,111.156,-65.1126)">
                <text x="987.772px" y="265.27px" style="font-family:'Quicksand-Regular', 'Quicksand';font-size:18.431px;fill:rgb(215,215,217);">F<tspan x="997.926px 1008.89px 1015.58px " y="265.27px 265.27px 265.27px ">ore</tspan>ignK<tspan x="1063.9px " y="265.27px ">e</tspan>y</text>
            </g>
        </g>
        <g transform="matrix(1,0,0,1,-348.218,-24.9824)">
            <g transform="matrix(0.635735,0,0,0.635735,111.156,-65.1126)">
                <text x="799.775px" y="312.055px" style="font-family:'Quicksand-Regular', 'Quicksand';font-size:18.431px;fill:rgb(215,215,217);">imag<tspan x="842.673px " y="312.055px ">e</tspan></text>
            </g>
        </g>
        <g transform="matrix(1,0,0,1,-348.218,-24.9824)">
            <g transform="matrix(0.635735,0,0,0.635735,111.156,-65.1126)">
                <text x="987.772px" y="312.055px" style="font-family:'Quicksand-Regular', 'Quicksand';font-size:18.431px;fill:rgb(215,215,217);">F<tspan x="997.926px 1008.89px 1015.58px " y="312.055px 312.055px 312.055px ">ore</tspan>ignK<tspan x="1063.9px " y="312.055px ">e</tspan>y</text>
            </g>
        </g>
        <g transform="matrix(1,0,0,1,-348.218,-24.9824)">
            <g transform="matrix(0.635735,0,0,0.635735,111.156,-65.1126)">
                <text x="799.775px" y="358.841px" style="font-family:'Quicksand-Regular', 'Quicksand';font-size:18.431px;fill:rgb(215,215,217);">description</text>
            </g>
        </g>
        <g transform="matrix(1,0,0,1,-348.218,-24.9824)">
            <g transform="matrix(0.635735,0,0,0.635735,111.156,-65.1126)">
                <text x="1005.91px" y="358.841px" style="font-family:'Quicksand-Regular', 'Quicksand';font-size:18.431px;fill:rgb(215,215,217);">T<tspan x="1015.08px 1025.46px 1035.55px 1042.06px 1052.74px 1056.94px 1067.44px " y="358.841px 358.841px 358.841px 358.841px 358.841px 358.841px 358.841px ">extFiel</tspan>d</text>
            </g>
        </g>
        <g transform="matrix(1,0,0,1,-348.218,-24.9824)">
            <g transform="matrix(0.635735,0,0,0.635735,111.156,-65.1126)">
                <text x="799.775px" y="405.626px" style="font-family:'Quicksand-Regular', 'Quicksand';font-size:18.431px;fill:rgb(215,215,217);">displa<tspan x="849.654px " y="405.626px ">y</tspan>_name</text>
            </g>
        </g>
        <g transform="matrix(1,0,0,1,-348.218,-24.9824)">
            <g transform="matrix(0.635735,0,0,0.635735,111.156,-65.1126)">
                <text x="1001.92px" y="405.626px" style="font-family:'Quicksand-Regular', 'Quicksand';font-size:18.431px;fill:rgb(215,215,217);">CharFiel<tspan x="1071.28px " y="405.626px ">d</tspan></text>
            </g>
        </g>
        <g transform="matrix(1,0,0,1,-348.218,-24.9824)">
            <g transform="matrix(0.635735,0,0,0.635735,111.156,-65.1126)">
                <text x="799.775px" y="452.411px" style="font-family:'Quicksand-Regular', 'Quicksand';font-size:18.431px;fill:rgb(215,215,217);">name</text>
            </g>
        </g>
        <g transform="matrix(1,0,0,1,-348.218,-24.9824)">
            <g transform="matrix(0.635735,0,0,0.635735,111.156,-65.1126)">
                <text x="1001.92px" y="452.411px" style="font-family:'Quicksand-Regular', 'Quicksand';font-size:18.431px;fill:rgb(215,215,217);">CharFiel<tspan x="1071.28px " y="452.411px ">d</tspan></text>
            </g>
        </g>
        <g transform="matrix(1,0,0,1,-348.218,-24.9824)">
            <g transform="matrix(0.635735,0,0,0.635735,111.156,-65.1126)">
                <text x="799.775px" y="499.196px" style="font-family:'Quicksand-Regular', 'Quicksand';font-size:18.431px;fill:rgb(215,215,217);">variant_type</text>
            </g>
        </g>
        <g transform="matrix(1,0,0,1,-348.218,-24.9824)">
            <g transform="matrix(0.635735,0,0,0.635735,111.156,-65.1126)">
                <text x="1001.92px" y="499.196px" style="font-family:'Quicksand-Regular', 'Quicksand';font-size:18.431px;fill:rgb(215,215,217);">CharFiel<tspan x="1071.28px " y="499.196px ">d</tspan></text>
            </g>
        </g>
        <g transform="matrix(1,0,0,1,-348.218,-24.9824)">
            <g transform="matrix(0.635735,0,0,0.635735,111.156,-5.82189)">
                <text x="1212.14px" y="78.446px" style="font-family:'Quicksand-Bold', 'Quicksand';font-weight:700;font-size:18.431px;fill:rgb(32,32,32);">Pr<tspan x="1231px 1242.39px 1254.25px 1265.15px 1274.72px " y="78.446px 78.446px 78.446px 78.446px 78.446px ">oduct</tspan>Vari<tspan x="1318.73px 1330.29px 1341.36px " y="78.446px 78.446px 78.446px ">ant</tspan></text>
                <text x="1212.14px" y="125.226px" style="font-family:'Quicksand-Bold', 'Quicksand';font-weight:700;font-size:18.431px;fill:rgb(215,215,217);">id</text>
            </g>
        </g>
        <g transform="matrix(1,0,0,1,-348.218,-24.9824)">
            <g transform="matrix(0.635735,0,0,0.635735,111.156,-5.82189)">
                <text x="1466.29px" y="125.231px" style="font-family:'Quicksand-Bold', 'Quicksand';font-weight:700;font-size:18.431px;fill:rgb(215,215,217);">int</text>
            </g>
        </g>
        <g transform="matrix(1,0,0,1,-348.218,-24.9824)">
            <g transform="matrix(0.635735,0,0,0.635735,111.156,-5.82189)">
                <text x="1212.14px" y="172.007px" style="font-family:'Quicksand-Regular', 'Quicksand';font-size:18.431px;fill:rgb(215,215,217);">sku</text>
            </g>
        </g>
        <g transform="matrix(1,0,0,1,-348.218,-24.9824)">
            <g transform="matrix(0.635735,0,0,0.635735,111.156,-5.82189)">
                <text x="1414.28px" y="172.007px" style="font-family:'Quicksand-Regular', 'Quicksand';font-size:18.431px;fill:rgb(215,215,217);">CharFiel<tspan x="1483.64px " y="172.007px ">d</tspan></text>
            </g>
        </g>
        <g transform="matrix(1,0,0,1,-348.218,-24.9824)">
            <g transform="matrix(0.635735,0,0,0.635735,111.156,-5.82189)">
                <text x="1212.14px" y="218.792px" style="font-family:'Quicksand-Regular', 'Quicksand';font-size:18.431px;fill:rgb(215,215,217);">pr<tspan x="1229.92px 1240.88px 1252.27px " y="218.792px 218.792px 218.792px ">odu</tspan>ct</text>
            </g>
        </g>
        <g transform="matrix(1,0,0,1,-348.218,-24.9824)">
            <g transform="matrix(0.635735,0,0,0.635735,111.156,-5.82189)">
                <text x="1400.13px" y="218.792px" style="font-family:'Quicksand-Regular', 'Quicksand';font-size:18.431px;fill:rgb(215,215,217);">F<tspan x="1410.29px 1421.25px 1427.94px " y="218.792px 218.792px 218.792px ">ore</tspan>ignK<tspan x="1476.26px " y="218.792px ">e</tspan>y</text>
            </g>
        </g>
        <g transform="matrix(1,0,0,1,-348.218,-24.9824)">
            <g transform="matrix(0.635735,0,0,0.635735,111.156,-5.82189)">
                <text x="1212.14px" y="265.577px" style="font-family:'Quicksand-Regular', 'Quicksand';font-size:18.431px;fill:rgb(215,215,217);">imag<tspan x="1255.03px " y="265.577px ">e</tspan></text>
            </g>
        </g>
        <g transform="matrix(1,0,0,1,-348.218,-24.9824)">
            <g transform="matrix(0.635735,0,0,0.635735,111.156,-5.82189)">
                <text x="1400.13px" y="265.577px" style="font-family:'Quicksand-Regular', 'Quicksand';font-size:18.431px;fill:rgb(215,215,217);">F<tspan x="1410.29px 1421.25px 1427.94px " y="265.577px 265.577px 265.577px ">ore</tspan>ignK<tspan x="1476.26px " y="265.577px ">e</tspan>y</text>
            </g>
        </g>
        <g transform="matrix(1,0,0,1,-348.218,-24.9824)">
            <g transform="matrix(0.635735,0,0,0.635735,111.156,-5.82189)">
                <text x="1212.14px" y="312.362px" style="font-family:'Quicksand-Regular', 'Quicksand';font-size:18.431px;fill:rgb(215,215,217);">description</text>
            </g>
        </g>
        <g transform="matrix(1,0,0,1,-348.218,-24.9824)">
            <g transform="matrix(0.635735,0,0,0.635735,111.156,-5.82189)">
                <text x="1418.27px" y="312.362px" style="font-family:'Quicksand-Regular', 'Quicksand';font-size:18.431px;fill:rgb(215,215,217);">T<tspan x="1427.44px 1437.82px 1447.91px 1454.42px 1465.1px 1469.3px 1479.81px " y="312.362px 312.362px 312.362px 312.362px 312.362px 312.362px 312.362px ">extFiel</tspan>d</text>
            </g>
        </g>
        <g transform="matrix(1,0,0,1,-348.218,-24.9824)">
            <g transform="matrix(0.635735,0,0,0.635735,111.156,-5.82189)">
                <text x="1212.14px" y="359.148px" style="font-family:'Quicksand-Regular', 'Quicksand';font-size:18.431px;fill:rgb(215,215,217);">displa<tspan x="1262.02px " y="359.148px ">y</tspan>_name</text>
            </g>
        </g>
        <g transform="matrix(1,0,0,1,-348.218,-24.9824)">
            <g transform="matrix(0.635735,0,0,0.635735,111.156,-5.82189)">
                <text x="1414.28px" y="359.148px" style="font-family:'Quicksand-Regular', 'Quicksand';font-size:18.431px;fill:rgb(215,215,217);">CharFiel<tspan x="1483.64px " y="359.148px ">d</tspan></text>
            </g>
        </g>
        <g transform="matrix(1,0,0,1,-348.218,-24.9824)">
            <g transform="matrix(0.635735,0,0,0.635735,111.156,-5.82189)">
                <text x="1212.14px" y="405.933px" style="font-family:'Quicksand-Regular', 'Quicksand';font-size:18.431px;fill:rgb(215,215,217);">name</text>
            </g>
        </g>
        <g transform="matrix(1,0,0,1,-348.218,-24.9824)">
            <g transform="matrix(0.635735,0,0,0.635735,111.156,-5.82189)">
                <text x="1414.28px" y="405.933px" style="font-family:'Quicksand-Regular', 'Quicksand';font-size:18.431px;fill:rgb(215,215,217);">CharFiel<tspan x="1483.64px " y="405.933px ">d</tspan></text>
            </g>
        </g>
        <g transform="matrix(1,0,0,1,-348.218,-24.9824)">
            <g transform="matrix(0.635735,0,0,0.635735,111.156,-5.82189)">
                <text x="1212.14px" y="452.718px" style="font-family:'Quicksand-Regular', 'Quicksand';font-size:18.431px;fill:rgb(215,215,217);">price</text>
            </g>
        </g>
        <g transform="matrix(1,0,0,1,-348.218,-24.9824)">
            <g transform="matrix(0.635735,0,0,0.635735,111.156,-5.82189)">
                <text x="1385.78px" y="452.718px" style="font-family:'Quicksand-Regular', 'Quicksand';font-size:18.431px;fill:rgb(215,215,217);">D<tspan x="1399.18px " y="452.718px ">e</tspan>cimalFiel<tspan x="1483.64px " y="452.718px ">d</tspan></text>
            </g>
        </g>
    </g>
</svg>
