<?xml version="1.0" encoding="UTF-8" standalone="no"?>
<!DOCTYPE svg PUBLIC "-//W3C//DTD SVG 1.1//EN" "http://www.w3.org/Graphics/SVG/1.1/DTD/svg11.dtd">
<svg width="800px" height="auto" viewBox="0 0 1820 325" version="1.1" xmlns="http://www.w3.org/2000/svg" xmlns:xlink="http://www.w3.org/1999/xlink" xml:space="preserve" xmlns:serif="http://www.serif.com/" style="fill-rule:evenodd;clip-rule:evenodd;stroke-linejoin:round;stroke-miterlimit:2;">
    <g transform="matrix(1,0,0,1,-26,-25.7524)">
        <g transform="matrix(1,0,0,1,-25,-352.644)">
            <g transform="matrix(1.96664,0,0,-1.96664,51,443.295)">
                <rect x="0" y="0" width="180.083" height="33" style="fill:rgb(255,173,39);"/>
            </g>
        </g>
        <g transform="matrix(1,0,0,1,-25,-352.644)">
            <g transform="matrix(1.96664,0,0,-1.96664,51,508.194)">
                <rect x="0" y="0" width="180.083" height="33" style="fill:rgb(48,48,48);"/>
            </g>
        </g>
        <g transform="matrix(1,0,0,1,-25,-352.644)">
            <g transform="matrix(1.96664,0,0,-1.96664,51,573.093)">
                <rect x="0" y="0" width="180.083" height="33" style="fill:rgb(48,48,48);"/>
            </g>
        </g>
        <g transform="matrix(1,0,0,1,-25,-352.644)">
            <g transform="matrix(1.96664,0,0,-1.96664,503.49,443.295)">
                <rect x="0" y="0" width="205.542" height="33" style="fill:rgb(255,173,39);"/>
            </g>
        </g>
        <g transform="matrix(1,0,0,1,-25,-352.644)">
            <g transform="matrix(1.96664,0,0,-1.96664,503.49,508.194)">
                <rect x="0" y="0" width="205.542" height="33" style="fill:rgb(48,48,48);"/>
            </g>
        </g>
        <g transform="matrix(1,0,0,1,-25,-352.644)">
            <g transform="matrix(1.96664,0,0,-1.96664,503.49,573.093)">
                <rect x="0" y="0" width="205.542" height="33" style="fill:rgb(48,48,48);"/>
            </g>
        </g>
        <g transform="matrix(1,0,0,1,-25,-352.644)">
            <g transform="matrix(1.96664,0,0,-1.96664,503.49,637.992)">
                <rect x="0" y="0" width="205.542" height="33" style="fill:rgb(48,48,48);"/>
            </g>
        </g>
        <g transform="matrix(1,0,0,1,-25,-352.644)">
            <g transform="matrix(1.96664,0,0,-1.96664,1006.05,443.295)">
                <rect x="0" y="0" width="205.542" height="33" style="fill:rgb(255,173,39);"/>
            </g>
        </g>
        <g transform="matrix(1,0,0,1,-25,-352.644)">
            <g transform="matrix(1.96664,0,0,-1.96664,1006.05,508.194)">
                <rect x="0" y="0" width="205.542" height="33" style="fill:rgb(48,48,48);"/>
            </g>
        </g>
        <g transform="matrix(1,0,0,1,-25,-352.644)">
            <g transform="matrix(1.96664,0,0,-1.96664,1006.05,573.093)">
                <rect x="0" y="0" width="205.542" height="33" style="fill:rgb(48,48,48);"/>
            </g>
        </g>
        <g transform="matrix(1,0,0,1,-25,-352.644)">
            <g transform="matrix(1.96664,0,0,-1.96664,1006.05,637.992)">
                <rect x="0" y="0" width="205.542" height="33" style="fill:rgb(48,48,48);"/>
            </g>
        </g>
        <g transform="matrix(1,0,0,1,-25,-352.644)">
            <g transform="matrix(1.96664,0,0,-1.96664,1006.05,702.891)">
                <rect x="0" y="0" width="205.542" height="33" style="fill:rgb(48,48,48);"/>
            </g>
        </g>
        <g transform="matrix(1,0,0,1,-25,-352.644)">
            <g transform="matrix(1.96664,0,0,-1.96664,1508.61,443.295)">
                <rect x="0" y="0" width="184.271" height="33" style="fill:rgb(255,173,39);"/>
            </g>
        </g>
        <g transform="matrix(1,0,0,1,-25,-352.644)">
            <g transform="matrix(1.96664,0,0,-1.96664,1508.61,508.194)">
                <rect x="0" y="0" width="184.271" height="33" style="fill:rgb(48,48,48);"/>
            </g>
        </g>
        <g transform="matrix(1,0,0,1,-25,-352.644)">
            <g transform="matrix(1.96664,0,0,-1.96664,1508.61,573.093)">
                <rect x="0" y="0" width="184.271" height="33" style="fill:rgb(48,48,48);"/>
            </g>
        </g>
        <g transform="matrix(1,0,0,1,-25,-352.644)">
            <g transform="matrix(1,0,0,1,1,0.64389)">
                <text x="69.666px" y="417.212px" style="font-family:'Quicksand-Bold', 'Quicksand';font-weight:700;font-size:25.566px;fill:rgb(32,32,32);">Activity</text>
                <text x="69.666px" y="482.108px" style="font-family:'Quicksand-Bold', 'Quicksand';font-weight:700;font-size:25.566px;fill:rgb(215,215,217);">id</text>
            </g>
        </g>
        <g transform="matrix(1,0,0,1,-25,-352.644)">
            <g transform="matrix(1,0,0,1,1,0.64389)">
                <text x="348.806px" y="482.111px" style="font-family:'Quicksand-Bold', 'Quicksand';font-weight:700;font-size:25.566px;fill:rgb(215,215,217);">int</text>
            </g>
        </g>
        <g transform="matrix(1,0,0,1,-25,-352.644)">
            <g transform="matrix(1,0,0,1,1,0.64389)">
                <text x="69.666px" y="546.997px" style="font-family:'Quicksand-Regular', 'Quicksand';font-size:25.566px;fill:rgb(215,215,217);">activity</text>
            </g>
        </g>
        <g transform="matrix(1,0,0,1,-25,-352.644)">
            <g transform="matrix(1,0,0,1,1,0.64389)">
                <text x="271.902px" y="546.997px" style="font-family:'Quicksand-Regular', 'Quicksand';font-size:25.566px;fill:rgb(215,215,217);">CharFiel<tspan x="368.113px " y="546.997px ">d</tspan></text>
            </g>
        </g>
        <g transform="matrix(1,0,0,1,-25,-352.644)">
            <g transform="matrix(1,0,0,1,1,0.64389)">
                <text x="522.157px" y="417.212px" style="font-family:'Quicksand-Bold', 'Quicksand';font-weight:700;font-size:25.566px;fill:rgb(32,32,32);">Adjectiv<tspan x="620.175px " y="417.212px ">e</tspan></text>
                <text x="522.157px" y="482.108px" style="font-family:'Quicksand-Bold', 'Quicksand';font-weight:700;font-size:25.566px;fill:rgb(215,215,217);">id</text>
            </g>
        </g>
        <g transform="matrix(1,0,0,1,-25,-352.644)">
            <g transform="matrix(1,0,0,1,1,0.64389)">
                <text x="851.364px" y="482.111px" style="font-family:'Quicksand-Bold', 'Quicksand';font-weight:700;font-size:25.566px;fill:rgb(215,215,217);">int</text>
            </g>
        </g>
        <g transform="matrix(1,0,0,1,-25,-352.644)">
            <g transform="matrix(1,0,0,1,1,0.64389)">
                <text x="522.157px" y="546.997px" style="font-family:'Quicksand-Regular', 'Quicksand';font-size:25.566px;fill:rgb(215,215,217);">adjectiv<tspan x="614.716px " y="546.997px ">e</tspan></text>
            </g>
        </g>
        <g transform="matrix(1,0,0,1,-25,-352.644)">
            <g transform="matrix(1,0,0,1,1,0.64389)">
                <text x="774.46px" y="546.997px" style="font-family:'Quicksand-Regular', 'Quicksand';font-size:25.566px;fill:rgb(215,215,217);">CharFiel<tspan x="870.671px " y="546.997px ">d</tspan></text>
            </g>
        </g>
        <g transform="matrix(1,0,0,1,-25,-352.644)">
            <g transform="matrix(1,0,0,1,1,0.64389)">
                <text x="522.157px" y="611.896px" style="font-family:'Quicksand-Regular', 'Quicksand';font-size:25.566px;fill:rgb(215,215,217);">det<tspan x="560.295px " y="611.896px ">e</tspan>rminer</text>
            </g>
        </g>
        <g transform="matrix(1,0,0,1,-25,-352.644)">
            <g transform="matrix(1,0,0,1,1,0.64389)">
                <text x="774.46px" y="611.896px" style="font-family:'Quicksand-Regular', 'Quicksand';font-size:25.566px;fill:rgb(215,215,217);">CharFiel<tspan x="870.671px " y="611.896px ">d</tspan></text>
            </g>
        </g>
        <g transform="matrix(1,0,0,1,-25,-352.644)">
            <g transform="matrix(1,0,0,1,1,0.64389)">
                <text x="1024.71px" y="417.212px" style="font-family:'Quicksand-Bold', 'Quicksand';font-weight:700;font-size:25.566px;fill:rgb(32,32,32);">Cr<tspan x="1051.27px " y="417.212px ">e</tspan>atur<tspan x="1118.12px " y="417.212px ">e</tspan></text>
                <text x="1024.71px" y="482.108px" style="font-family:'Quicksand-Bold', 'Quicksand';font-weight:700;font-size:25.566px;fill:rgb(215,215,217);">id</text>
            </g>
        </g>
        <g transform="matrix(1,0,0,1,-25,-352.644)">
            <g transform="matrix(1,0,0,1,1,0.64389)">
                <text x="1353.92px" y="482.111px" style="font-family:'Quicksand-Bold', 'Quicksand';font-weight:700;font-size:25.566px;fill:rgb(215,215,217);">int</text>
            </g>
        </g>
        <g transform="matrix(1,0,0,1,-25,-352.644)">
            <g transform="matrix(1,0,0,1,1,0.64389)">
                <text x="1024.71px" y="546.997px" style="font-family:'Quicksand-Regular', 'Quicksand';font-size:25.566px;fill:rgb(215,215,217);">cr<tspan x="1047.13px 1061.45px " y="546.997px 546.997px ">ea</tspan>tur<tspan x="1109.33px " y="546.997px ">e</tspan></text>
            </g>
        </g>
        <g transform="matrix(1,0,0,1,-25,-352.644)">
            <g transform="matrix(1,0,0,1,1,0.64389)">
                <text x="1277.02px" y="546.997px" style="font-family:'Quicksand-Regular', 'Quicksand';font-size:25.566px;fill:rgb(215,215,217);">CharFiel<tspan x="1373.23px " y="546.997px ">d</tspan></text>
            </g>
        </g>
        <g transform="matrix(1,0,0,1,-25,-352.644)">
            <g transform="matrix(1,0,0,1,1,0.64389)">
                <text x="1024.71px" y="611.896px" style="font-family:'Quicksand-Regular', 'Quicksand';font-size:25.566px;fill:rgb(215,215,217);">det<tspan x="1062.85px " y="611.896px ">e</tspan>rminer</text>
            </g>
        </g>
        <g transform="matrix(1,0,0,1,-25,-352.644)">
            <g transform="matrix(1,0,0,1,1,0.64389)">
                <text x="1277.02px" y="611.896px" style="font-family:'Quicksand-Regular', 'Quicksand';font-size:25.566px;fill:rgb(215,215,217);">CharFiel<tspan x="1373.23px " y="611.896px ">d</tspan></text>
            </g>
        </g>
        <g transform="matrix(1,0,0,1,-25,-352.644)">
            <g transform="matrix(1,0,0,1,1,0.64389)">
                <text x="1024.71px" y="676.795px" style="font-family:'Quicksand-Regular', 'Quicksand';font-size:25.566px;fill:rgb(215,215,217);">pl<tspan x="1045.85px 1060.39px 1069.93px " y="676.795px 676.795px 676.795px ">ura</tspan>l</text>
            </g>
        </g>
        <g transform="matrix(1,0,0,1,-25,-352.644)">
            <g transform="matrix(1,0,0,1,1,0.64389)">
                <text x="1277.02px" y="676.795px" style="font-family:'Quicksand-Regular', 'Quicksand';font-size:25.566px;fill:rgb(215,215,217);">CharFiel<tspan x="1373.23px " y="676.795px ">d</tspan></text>
            </g>
        </g>
        <g transform="matrix(1,0,0,1,-25,-352.644)">
            <g transform="matrix(1,0,0,1,1,0.64389)">
                <text x="1527.27px" y="417.212px" style="font-family:'Quicksand-Bold', 'Quicksand';font-weight:700;font-size:25.566px;fill:rgb(32,32,32);">Location</text>
                <text x="1527.27px" y="482.108px" style="font-family:'Quicksand-Bold', 'Quicksand';font-weight:700;font-size:25.566px;fill:rgb(215,215,217);">id</text>
            </g>
        </g>
        <g transform="matrix(1,0,0,1,-25,-352.644)">
            <g transform="matrix(1,0,0,1,1,0.64389)">
                <text x="1814.65px" y="482.111px" style="font-family:'Quicksand-Bold', 'Quicksand';font-weight:700;font-size:25.566px;fill:rgb(215,215,217);">int</text>
            </g>
        </g>
        <g transform="matrix(1,0,0,1,-25,-352.644)">
            <g transform="matrix(1,0,0,1,1,0.64389)">
                <text x="1527.27px" y="546.997px" style="font-family:'Quicksand-Regular', 'Quicksand';font-size:25.566px;fill:rgb(215,215,217);">l<tspan x="1532.89px " y="546.997px ">o</tspan>cation</text>
            </g>
        </g>
        <g transform="matrix(1,0,0,1,-25,-352.644)">
            <g transform="matrix(1,0,0,1,1,0.64389)">
                <text x="1737.74px" y="546.997px" style="font-family:'Quicksand-Regular', 'Quicksand';font-size:25.566px;fill:rgb(215,215,217);">CharFiel<tspan x="1833.95px " y="546.997px ">d</tspan></text>
            </g>
        </g>
    </g>
</svg>
