<?xml version="1.0" encoding="UTF-8" standalone="no"?>
<!DOCTYPE svg PUBLIC "-//W3C//DTD SVG 1.1//EN" "http://www.w3.org/Graphics/SVG/1.1/DTD/svg11.dtd">
<svg width="100%" height="100%" viewBox="0 0 494 494" version="1.1" xmlns="http://www.w3.org/2000/svg" xmlns:xlink="http://www.w3.org/1999/xlink" xml:space="preserve" xmlns:serif="http://www.serif.com/" style="fill-rule:evenodd;clip-rule:evenodd;stroke-linejoin:round;stroke-miterlimit:2;">
    <g transform="matrix(1,0,0,1,-116,-143)">
        <path d="M335.254,411.002L330.229,420.719C251.811,468.023 208.27,551.362 190.089,637L143.894,637C156.625,499.352 269.223,432.536 335.254,411.002ZM298,489.193L298,632.698C298,634.194 298.219,635.638 298.626,637L268.045,637C262.302,580.909 277.235,529.83 298,489.193ZM428,616.521C433.474,623.537 439.195,630.367 445.128,637L427.374,637C427.781,635.638 428,634.194 428,632.698L428,616.521ZM313,637L313,486.698L363,390L413,486.698L413,637L407,637L407,502.424C407,502.424 399.667,508.109 396.333,508.109C393,508.109 385.5,502.424 385.5,502.424L385.5,637L313,637ZM428,495.389C478.122,541.123 543.926,567.76 610,579.656L610,624.041C526.299,620.559 467.366,580.895 428,534.769L428,495.389ZM398.869,426.711C464.844,461.249 539.659,463.942 610,448.485L610,497.1C527.681,510.514 454.907,478.03 408.154,444.669L398.869,426.711ZM339.81,402.19C252.321,399.273 175.305,441.13 116,499.238L116,436.652C194.707,381.17 290.482,385.237 342.134,397.696L339.81,402.19ZM353.929,422.784L320,488.401L320,492.23C323.307,494.541 327.086,496.698 329.667,496.698C335.222,496.698 346.333,486.698 346.333,486.698C346.333,486.698 357.444,496.698 363,496.698C368.556,496.698 379.667,486.698 379.667,486.698C379.667,486.698 390.778,496.698 396.333,496.698C398.914,496.698 402.693,494.541 406,492.23L406,488.401L372.071,422.784C369.209,423.327 366.161,423.619 363,423.619C359.839,423.619 356.791,423.327 353.929,422.784ZM388.091,405.867C474.8,408.116 551.127,366.447 610,308.762L610,371.348C534.9,424.287 444.26,423.01 391.241,411.959L388.091,405.867ZM382.381,394.824C478.24,344.51 526.084,242.831 540.959,143L583.282,143C584.361,304.436 453.533,378.477 384.51,398.941L382.381,394.824ZM345.225,391.717C275.058,347.405 192.858,342.626 116,359.515L116,310.9C218.608,294.18 306.387,348.772 347.417,387.479L345.225,391.717ZM376.733,383.901C422.348,309.95 424.596,222.943 404.156,143L453.389,143C477.843,251.852 419.69,345.998 379.228,388.727L376.733,383.901ZM351.526,380.338C302.886,291.741 209.715,245.217 116,228.344L116,183.959C263.443,190.094 334.029,308.497 356.132,376.665C354.38,377.567 352.81,378.812 351.526,380.338ZM364.937,375.126C365.974,282.958 317.511,202.726 253.401,143L319.683,143C383.917,221.138 382.692,320.971 370.673,377.112C368.935,376.076 366.986,375.392 364.937,375.126Z" style="fill:rgb(40,40,40);"/>
    </g>
</svg>
