<?xml version="1.0" encoding="UTF-8" standalone="no"?>
<!DOCTYPE svg PUBLIC "-//W3C//DTD SVG 1.1//EN" "http://www.w3.org/Graphics/SVG/1.1/DTD/svg11.dtd">
<svg width="100%" height="100%" viewBox="0 0 630 367" version="1.1" xmlns="http://www.w3.org/2000/svg" xmlns:xlink="http://www.w3.org/1999/xlink" xml:space="preserve" xmlns:serif="http://www.serif.com/" style="fill-rule:evenodd;clip-rule:evenodd;stroke-linejoin:round;stroke-miterlimit:2;">
    <g transform="matrix(1,0,0,1,-416.213,-1.7053e-13)">
        <path d="M1045.76,18.34C1045.76,8.218 1037.54,0 1027.42,0L434.553,0C424.431,0 416.213,8.218 416.213,18.34L416.213,348.46C416.213,358.582 424.431,366.8 434.553,366.8L1027.42,366.8C1037.54,366.8 1045.76,358.582 1045.76,348.46L1045.76,18.34Z" style="fill:rgb(235,235,235);"/>
        <path d="M1032.9,29.919C1032.9,20.508 1025.26,12.867 1015.85,12.867L446.152,12.867C436.741,12.867 429.1,20.508 429.1,29.919L429.1,336.848C429.1,346.259 436.741,353.9 446.152,353.9L1015.85,353.9C1025.26,353.9 1032.9,346.259 1032.9,336.848L1032.9,29.919Z" style="fill:rgb(32,32,32);"/>
        <path d="M442,183.384L1020,183.384L1020,41.56C1020,32.862 1012.94,25.8 1004.24,25.8L457.76,25.8C449.062,25.8 442,32.862 442,41.56L442,183.384Z" style="fill:rgb(255,173,39);"/>
        <g transform="matrix(1.6698,0,0,1.46018,-364.975,-169.506)">
            <g transform="matrix(89.5833,0,0,102.443,485.688,218.806)">
                <path d="M0.466,-0.303C0.466,-0.239 0.45,-0.191 0.419,-0.158C0.387,-0.125 0.345,-0.109 0.292,-0.109C0.281,-0.109 0.269,-0.11 0.256,-0.111C0.243,-0.112 0.232,-0.113 0.222,-0.115L0.222,-0.494C0.233,-0.495 0.245,-0.497 0.256,-0.498C0.267,-0.499 0.278,-0.499 0.29,-0.499C0.325,-0.499 0.355,-0.492 0.382,-0.477C0.408,-0.463 0.429,-0.442 0.444,-0.413C0.459,-0.384 0.466,-0.348 0.466,-0.303ZM0.623,-0.306C0.623,-0.377 0.609,-0.436 0.58,-0.483C0.551,-0.53 0.511,-0.565 0.461,-0.588C0.409,-0.611 0.35,-0.622 0.281,-0.622C0.256,-0.622 0.228,-0.621 0.197,-0.618C0.166,-0.615 0.138,-0.61 0.111,-0.601C0.099,-0.596 0.089,-0.591 0.082,-0.584C0.075,-0.577 0.071,-0.566 0.071,-0.553L0.071,-0.075C0.071,-0.043 0.088,-0.021 0.123,-0.008C0.149,0.001 0.178,0.007 0.21,0.01C0.242,0.013 0.269,0.015 0.291,0.015C0.358,0.015 0.416,0.003 0.466,-0.021C0.515,-0.044 0.554,-0.08 0.582,-0.127C0.609,-0.174 0.623,-0.234 0.623,-0.306Z" style="fill:rgb(32,32,32);fill-rule:nonzero;"/>
            </g>
            <g transform="matrix(89.5833,0,0,102.443,545.081,218.806)">
                <path d="M0.66,-0.304C0.66,-0.235 0.647,-0.176 0.62,-0.129C0.593,-0.081 0.556,-0.045 0.508,-0.02C0.462,0.005 0.408,0.017 0.349,0.017C0.29,0.017 0.237,0.005 0.19,-0.02C0.143,-0.045 0.107,-0.081 0.08,-0.129C0.053,-0.176 0.04,-0.235 0.04,-0.304C0.04,-0.373 0.054,-0.432 0.081,-0.48C0.108,-0.527 0.145,-0.563 0.192,-0.588C0.239,-0.612 0.291,-0.624 0.349,-0.624C0.408,-0.624 0.461,-0.612 0.507,-0.588C0.555,-0.563 0.592,-0.527 0.619,-0.48C0.646,-0.432 0.66,-0.373 0.66,-0.304ZM0.503,-0.304C0.503,-0.368 0.489,-0.417 0.462,-0.45C0.434,-0.483 0.396,-0.5 0.349,-0.5C0.304,-0.5 0.267,-0.484 0.239,-0.451C0.211,-0.418 0.197,-0.369 0.197,-0.304C0.197,-0.239 0.211,-0.19 0.238,-0.157C0.266,-0.124 0.303,-0.107 0.35,-0.107C0.397,-0.107 0.434,-0.124 0.462,-0.157C0.489,-0.19 0.503,-0.239 0.503,-0.304Z" style="fill:rgb(32,32,32);fill-rule:nonzero;"/>
            </g>
            <g transform="matrix(89.5833,0,0,102.443,607.79,218.806)">
                <path d="M0.66,-0.304C0.66,-0.235 0.647,-0.176 0.62,-0.129C0.593,-0.081 0.556,-0.045 0.508,-0.02C0.462,0.005 0.408,0.017 0.349,0.017C0.29,0.017 0.237,0.005 0.19,-0.02C0.143,-0.045 0.107,-0.081 0.08,-0.129C0.053,-0.176 0.04,-0.235 0.04,-0.304C0.04,-0.373 0.054,-0.432 0.081,-0.48C0.108,-0.527 0.145,-0.563 0.192,-0.588C0.239,-0.612 0.291,-0.624 0.349,-0.624C0.408,-0.624 0.461,-0.612 0.507,-0.588C0.555,-0.563 0.592,-0.527 0.619,-0.48C0.646,-0.432 0.66,-0.373 0.66,-0.304ZM0.503,-0.304C0.503,-0.368 0.489,-0.417 0.462,-0.45C0.434,-0.483 0.396,-0.5 0.349,-0.5C0.304,-0.5 0.267,-0.484 0.239,-0.451C0.211,-0.418 0.197,-0.369 0.197,-0.304C0.197,-0.239 0.211,-0.19 0.238,-0.157C0.266,-0.124 0.303,-0.107 0.35,-0.107C0.397,-0.107 0.434,-0.124 0.462,-0.157C0.489,-0.19 0.503,-0.239 0.503,-0.304Z" style="fill:rgb(32,32,32);fill-rule:nonzero;"/>
            </g>
            <g transform="matrix(89.5833,0,0,102.443,670.498,218.806)">
                <path d="M0.466,-0.303C0.466,-0.239 0.45,-0.191 0.419,-0.158C0.387,-0.125 0.345,-0.109 0.292,-0.109C0.281,-0.109 0.269,-0.11 0.256,-0.111C0.243,-0.112 0.232,-0.113 0.222,-0.115L0.222,-0.494C0.233,-0.495 0.245,-0.497 0.256,-0.498C0.267,-0.499 0.278,-0.499 0.29,-0.499C0.325,-0.499 0.355,-0.492 0.382,-0.477C0.408,-0.463 0.429,-0.442 0.444,-0.413C0.459,-0.384 0.466,-0.348 0.466,-0.303ZM0.623,-0.306C0.623,-0.377 0.609,-0.436 0.58,-0.483C0.551,-0.53 0.511,-0.565 0.461,-0.588C0.409,-0.611 0.35,-0.622 0.281,-0.622C0.256,-0.622 0.228,-0.621 0.197,-0.618C0.166,-0.615 0.138,-0.61 0.111,-0.601C0.099,-0.596 0.089,-0.591 0.082,-0.584C0.075,-0.577 0.071,-0.566 0.071,-0.553L0.071,-0.075C0.071,-0.043 0.088,-0.021 0.123,-0.008C0.149,0.001 0.178,0.007 0.21,0.01C0.242,0.013 0.269,0.015 0.291,0.015C0.358,0.015 0.416,0.003 0.466,-0.021C0.515,-0.044 0.554,-0.08 0.582,-0.127C0.609,-0.174 0.623,-0.234 0.623,-0.306Z" style="fill:rgb(32,32,32);fill-rule:nonzero;"/>
            </g>
            <g transform="matrix(89.5833,0,0,102.443,729.892,218.806)">
                <path d="M0.071,-0.421L0.223,-0.421L0.223,-0.006L0.152,0.002C0.127,0.002 0.108,-0.005 0.093,-0.02C0.078,-0.035 0.071,-0.054 0.071,-0.079L0.071,-0.421ZM0.152,0.002L0.152,-0.122L0.466,-0.122C0.471,-0.115 0.475,-0.107 0.478,-0.097C0.481,-0.086 0.483,-0.075 0.483,-0.062C0.483,-0.041 0.478,-0.025 0.469,-0.014C0.46,-0.003 0.447,0.002 0.43,0.002L0.152,0.002ZM0.223,-0.231L0.071,-0.231L0.071,-0.608C0.078,-0.609 0.088,-0.611 0.102,-0.613C0.115,-0.615 0.128,-0.616 0.141,-0.616C0.17,-0.616 0.191,-0.611 0.204,-0.601C0.217,-0.591 0.223,-0.572 0.223,-0.544L0.223,-0.231Z" style="fill:rgb(32,32,32);fill-rule:nonzero;"/>
            </g>
            <g transform="matrix(89.5833,0,0,102.443,775.579,218.806)">
                <path d="M0.071,-0.424L0.219,-0.424L0.219,-0.006C0.213,-0.005 0.204,-0.003 0.192,-0.001C0.179,0.001 0.166,0.002 0.152,0.002C0.127,0.002 0.108,-0.005 0.093,-0.02C0.078,-0.035 0.071,-0.054 0.071,-0.079L0.071,-0.424ZM0.219,-0.182L0.071,-0.182L0.071,-0.525C0.071,-0.55 0.078,-0.57 0.093,-0.585C0.108,-0.599 0.127,-0.606 0.152,-0.606C0.166,-0.606 0.179,-0.605 0.192,-0.603C0.204,-0.601 0.213,-0.599 0.219,-0.598L0.219,-0.182ZM0.152,-0.249L0.152,-0.369L0.454,-0.369C0.458,-0.362 0.462,-0.354 0.465,-0.344C0.468,-0.334 0.47,-0.323 0.47,-0.311C0.47,-0.29 0.465,-0.274 0.456,-0.264C0.446,-0.254 0.433,-0.249 0.417,-0.249L0.152,-0.249ZM0.152,0.002L0.152,-0.119L0.487,-0.119C0.491,-0.113 0.495,-0.105 0.498,-0.094C0.501,-0.083 0.503,-0.072 0.503,-0.06C0.503,-0.039 0.498,-0.023 0.489,-0.013C0.479,-0.003 0.466,0.002 0.45,0.002L0.152,0.002ZM0.152,-0.486L0.152,-0.606L0.482,-0.606C0.487,-0.6 0.491,-0.592 0.494,-0.582C0.497,-0.572 0.498,-0.561 0.498,-0.549C0.498,-0.528 0.493,-0.512 0.484,-0.501C0.475,-0.491 0.462,-0.486 0.445,-0.486L0.152,-0.486Z" style="fill:rgb(32,32,32);fill-rule:nonzero;"/>
            </g>
        </g>
        <g transform="matrix(1.51066,0,0,1.46018,-255.089,-5.76218)">
            <g transform="matrix(128.727,0,0,133.176,501.686,229.015)">
                <path d="M0.185,-0.466L0.185,-0.606L0.518,-0.606C0.523,-0.599 0.527,-0.589 0.531,-0.577C0.534,-0.565 0.536,-0.552 0.536,-0.538C0.536,-0.513 0.531,-0.495 0.52,-0.484C0.508,-0.472 0.494,-0.466 0.475,-0.466L0.185,-0.466ZM0.369,-0.606L0.369,-0.466L0.036,-0.466C0.031,-0.473 0.027,-0.483 0.024,-0.495C0.02,-0.507 0.018,-0.52 0.018,-0.534C0.018,-0.559 0.024,-0.578 0.035,-0.589C0.046,-0.6 0.06,-0.606 0.079,-0.606L0.369,-0.606ZM0.187,-0.493L0.362,-0.493L0.362,-0.001C0.355,0.001 0.343,0.003 0.328,0.005C0.313,0.007 0.297,0.008 0.281,0.008C0.246,0.008 0.222,0.002 0.208,-0.011C0.194,-0.023 0.187,-0.044 0.187,-0.075L0.187,-0.493Z" style="fill:rgb(255,173,39);fill-rule:nonzero;"/>
            </g>
            <g transform="matrix(128.727,0,0,133.176,573.258,229.015)">
                <path d="M0.065,-0.442L0.24,-0.442L0.24,-0.001C0.233,0.001 0.221,0.003 0.206,0.005C0.191,0.007 0.175,0.008 0.159,0.008C0.124,0.008 0.1,0.002 0.086,-0.011C0.072,-0.023 0.065,-0.044 0.065,-0.075L0.065,-0.442ZM0.24,-0.211L0.065,-0.211L0.065,-0.608C0.073,-0.609 0.085,-0.611 0.101,-0.614C0.116,-0.616 0.131,-0.617 0.146,-0.617C0.179,-0.617 0.203,-0.611 0.218,-0.6C0.233,-0.589 0.24,-0.567 0.24,-0.534L0.24,-0.211ZM0.432,-0.442L0.607,-0.442L0.607,-0.001C0.6,0.001 0.588,0.003 0.573,0.005C0.558,0.007 0.542,0.008 0.526,0.008C0.491,0.008 0.467,0.002 0.453,-0.011C0.439,-0.023 0.432,-0.044 0.432,-0.075L0.432,-0.442ZM0.607,-0.211L0.432,-0.211L0.432,-0.608C0.44,-0.609 0.452,-0.611 0.468,-0.614C0.483,-0.616 0.498,-0.617 0.513,-0.617C0.546,-0.617 0.57,-0.611 0.585,-0.599C0.6,-0.587 0.607,-0.565 0.607,-0.532L0.607,-0.211ZM0.533,-0.234L0.14,-0.234L0.14,-0.372L0.533,-0.372L0.533,-0.234Z" style="fill:rgb(255,173,39);fill-rule:nonzero;"/>
            </g>
            <g transform="matrix(128.727,0,0,133.176,659.763,229.015)">
                <path d="M0.065,-0.442L0.24,-0.442L0.24,-0.001C0.233,0.001 0.221,0.003 0.206,0.005C0.191,0.007 0.175,0.008 0.159,0.008C0.124,0.008 0.1,0.002 0.086,-0.011C0.072,-0.023 0.065,-0.044 0.065,-0.075L0.065,-0.442ZM0.24,-0.211L0.065,-0.211L0.065,-0.608C0.073,-0.609 0.085,-0.611 0.101,-0.614C0.116,-0.616 0.131,-0.617 0.146,-0.617C0.179,-0.617 0.203,-0.611 0.218,-0.6C0.233,-0.589 0.24,-0.567 0.24,-0.534L0.24,-0.211Z" style="fill:rgb(255,173,39);fill-rule:nonzero;"/>
            </g>
            <g transform="matrix(128.727,0,0,133.176,699.025,229.015)">
                <path d="M0.251,-0.124C0.284,-0.124 0.307,-0.129 0.32,-0.14C0.333,-0.151 0.34,-0.163 0.34,-0.176C0.34,-0.189 0.335,-0.2 0.324,-0.207C0.313,-0.215 0.298,-0.222 0.279,-0.229L0.237,-0.243C0.198,-0.256 0.164,-0.271 0.135,-0.285C0.105,-0.301 0.082,-0.32 0.065,-0.344C0.048,-0.368 0.04,-0.399 0.04,-0.438C0.04,-0.495 0.062,-0.54 0.106,-0.574C0.149,-0.608 0.21,-0.625 0.289,-0.625C0.328,-0.625 0.362,-0.621 0.392,-0.614C0.422,-0.607 0.446,-0.596 0.463,-0.581C0.48,-0.566 0.489,-0.546 0.489,-0.523C0.489,-0.506 0.485,-0.492 0.477,-0.479C0.469,-0.466 0.459,-0.456 0.448,-0.447C0.433,-0.456 0.414,-0.465 0.389,-0.471C0.364,-0.478 0.337,-0.482 0.308,-0.482C0.278,-0.482 0.256,-0.478 0.242,-0.469C0.228,-0.461 0.221,-0.451 0.221,-0.438C0.221,-0.428 0.226,-0.42 0.234,-0.413C0.244,-0.407 0.256,-0.401 0.273,-0.396L0.326,-0.379C0.389,-0.359 0.438,-0.333 0.471,-0.302C0.504,-0.27 0.521,-0.227 0.521,-0.174C0.521,-0.117 0.499,-0.071 0.454,-0.035C0.408,0 0.343,0.018 0.257,0.018C0.216,0.018 0.18,0.014 0.147,0.005C0.114,-0.004 0.088,-0.017 0.069,-0.034C0.05,-0.051 0.04,-0.072 0.04,-0.097C0.04,-0.116 0.046,-0.133 0.057,-0.147C0.068,-0.16 0.081,-0.171 0.094,-0.178C0.113,-0.163 0.136,-0.151 0.163,-0.14C0.19,-0.129 0.219,-0.124 0.251,-0.124Z" style="fill:rgb(255,173,39);fill-rule:nonzero;"/>
            </g>
            <g transform="matrix(128.727,0,0,133.176,769.953,229.015)">
                <path d="M0.237,-0.558C0.237,-0.543 0.236,-0.522 0.235,-0.496C0.234,-0.469 0.233,-0.44 0.232,-0.408C0.23,-0.377 0.227,-0.345 0.224,-0.315C0.221,-0.283 0.217,-0.256 0.212,-0.231C0.207,-0.226 0.197,-0.223 0.184,-0.22C0.17,-0.217 0.158,-0.216 0.149,-0.216C0.13,-0.216 0.114,-0.219 0.101,-0.226C0.088,-0.232 0.079,-0.243 0.076,-0.26C0.073,-0.275 0.071,-0.297 0.068,-0.326C0.065,-0.355 0.063,-0.386 0.061,-0.421C0.059,-0.456 0.058,-0.49 0.057,-0.523C0.056,-0.556 0.055,-0.586 0.055,-0.611C0.084,-0.627 0.116,-0.635 0.151,-0.635C0.178,-0.635 0.2,-0.629 0.215,-0.616C0.23,-0.603 0.237,-0.584 0.237,-0.558ZM0.053,-0.076C0.053,-0.103 0.062,-0.126 0.079,-0.143C0.096,-0.161 0.12,-0.17 0.149,-0.17C0.178,-0.17 0.202,-0.161 0.219,-0.143C0.236,-0.126 0.245,-0.103 0.245,-0.076C0.245,-0.049 0.236,-0.026 0.219,-0.009C0.202,0.009 0.178,0.018 0.149,0.018C0.12,0.018 0.096,0.009 0.079,-0.009C0.062,-0.026 0.053,-0.049 0.053,-0.076Z" style="fill:rgb(255,173,39);fill-rule:nonzero;"/>
            </g>
        </g>
    </g>
</svg>
