<?xml version="1.0" encoding="UTF-8" standalone="no"?>
<!DOCTYPE svg PUBLIC "-//W3C//DTD SVG 1.1//EN" "http://www.w3.org/Graphics/SVG/1.1/DTD/svg11.dtd">
<svg width="100%" height="100%" viewBox="0 0 200 200" version="1.1" xmlns="http://www.w3.org/2000/svg" xmlns:xlink="http://www.w3.org/1999/xlink" xml:space="preserve" xmlns:serif="http://www.serif.com/" style="fill-rule:evenodd;clip-rule:evenodd;stroke-linejoin:round;stroke-miterlimit:2;">
    <g transform="matrix(1,0,0,1,-136,0)">
        <g transform="matrix(1,0,0,1,136,0)">
            <path d="M200,10C200,4.481 195.519,0 190,0L10,0C4.481,0 0,4.481 0,10L0,190C0,195.519 4.481,200 10,200L190,200C195.519,200 200,195.519 200,190L200,10Z" style="fill:rgb(235,235,235);"/>
            <g transform="matrix(1.02263,0,0,1.0689,-2.26337,-2.20745)">
                <path d="M192,15.001C192,11.137 188.721,8 184.682,8L15.318,8C11.279,8 8,11.137 8,15.001L8,141.019C8,144.883 11.279,148.02 15.318,148.02L184.682,148.02C188.721,148.02 192,144.883 192,141.019L192,15.001Z" style="fill:rgb(255,173,39);"/>
            </g>
            <g transform="matrix(0.440806,0,0,0.440806,-10.1508,-231.751)">
                <rect x="241.5" y="796.32" width="55.989" height="74.241" style="fill:rgb(235,235,235);"/>
            </g>
            <g transform="matrix(0.432162,0,0,0.232386,-7.43626,-61.9334)">
                <path d="M247.582,623.681L297.158,813.681L198.006,813.681L247.582,623.681Z" style="fill:rgb(235,235,235);"/>
            </g>
            <path d="M196,13.6C196,8.302 191.698,4 186.4,4L13.6,4C8.302,4 4,8.302 4,13.6L4,186.4C4,191.698 8.302,196 13.6,196L186.4,196C191.698,196 196,191.698 196,186.4L196,13.6ZM160.604,52C143.289,68.38 123.1,78.028 108.971,82.368L108.077,80.639C121.851,73.221 133.317,63.4 142.718,52L125.297,52C119.355,62.849 112.619,71.753 106.753,78.079L105.873,76.378C105.814,76.263 105.751,76.149 105.685,76.039C110.349,68.293 113.944,60.24 116.588,52L105.556,52C105.264,60.1 104.299,67.433 103.034,73.54C102.304,73.163 101.502,72.921 100.665,72.837C100.702,65.715 100.071,58.764 98.85,52L87.662,52C91.886,59.727 94.992,67.126 97.094,73.476C96.372,73.829 95.718,74.312 95.166,74.904C90.402,66.388 84.706,58.773 78.281,52L51.881,52C69.796,59.065 84.273,69.309 93.41,77.764L92.491,79.541C66.41,63.455 36.776,59.645 8,63.434L8,90.674C38.697,75.979 72.004,77.626 91.196,82.046L90.21,83.952C59.102,83.255 31.175,95.346 8,113.628L8,148.02L16.16,148.02C33.559,113.641 66.704,94.985 88.272,87.701L86.099,91.903C64.116,105.474 48.519,125.468 38.152,148.02L62.459,148.02C64.673,139.279 67.782,131.118 71.348,123.707L71.348,148.02L77.96,148.02L77.96,122.04L100,79.415L122.04,122.04L122.04,148.02L135.35,148.02C132.988,145.679 130.757,143.275 128.652,140.832L128.652,123.921C139.957,134.065 153.029,142.01 166.984,148.02L192,148.02L192,125.639C162.165,125.914 136.133,113.587 118.707,101.198L114.894,93.823C139.107,106.37 165.909,109.182 192,105.746L192,78.506C162.821,92.472 131.293,91.677 111.764,87.77L110.456,85.241C141.294,85.752 168.987,73.705 192,55.552L192,52L160.604,52ZM119.395,148.02L109.918,148.02L109.918,128.972C109.918,128.972 113.224,131.478 114.694,131.478C116.163,131.478 119.395,128.972 119.395,128.972L119.395,148.02ZM96.001,93.866L81.045,122.791L81.045,124.479C82.503,125.497 84.169,126.448 85.306,126.448C87.755,126.448 92.653,122.04 92.653,122.04C92.653,122.04 97.551,126.448 100,126.448C102.449,126.448 107.347,122.04 107.347,122.04C107.347,122.04 112.245,126.448 114.694,126.448C115.831,126.448 117.497,125.497 118.955,124.479L118.955,122.791L103.999,93.866C102.737,94.106 101.393,94.235 100,94.235C98.607,94.235 97.263,94.106 96.001,93.866ZM192,48L192,15.001C192,11.137 188.863,8 184.999,8L15.001,8C11.137,8 8,11.137 8,15.001L8,48L192,48Z" style="fill:rgb(32,32,32);"/>
            <g transform="matrix(0.495483,0,0,0.478928,-223.425,81.8461)">
                <g transform="matrix(128.727,0,0,133.176,501.686,229.015)">
                    <path d="M0.185,-0.466L0.185,-0.606L0.518,-0.606C0.523,-0.599 0.527,-0.589 0.531,-0.577C0.534,-0.565 0.536,-0.552 0.536,-0.538C0.536,-0.513 0.531,-0.495 0.52,-0.484C0.508,-0.472 0.494,-0.466 0.475,-0.466L0.185,-0.466ZM0.369,-0.606L0.369,-0.466L0.036,-0.466C0.031,-0.473 0.027,-0.483 0.024,-0.495C0.02,-0.507 0.018,-0.52 0.018,-0.534C0.018,-0.559 0.024,-0.578 0.035,-0.589C0.046,-0.6 0.06,-0.606 0.079,-0.606L0.369,-0.606ZM0.187,-0.493L0.362,-0.493L0.362,-0.001C0.355,0.001 0.343,0.003 0.328,0.005C0.313,0.007 0.297,0.008 0.281,0.008C0.246,0.008 0.222,0.002 0.208,-0.011C0.194,-0.023 0.187,-0.044 0.187,-0.075L0.187,-0.493Z" style="fill:rgb(255,173,39);fill-rule:nonzero;"/>
                </g>
                <g transform="matrix(128.727,0,0,133.176,573.258,229.015)">
                    <path d="M0.065,-0.442L0.24,-0.442L0.24,-0.001C0.233,0.001 0.221,0.003 0.206,0.005C0.191,0.007 0.175,0.008 0.159,0.008C0.124,0.008 0.1,0.002 0.086,-0.011C0.072,-0.023 0.065,-0.044 0.065,-0.075L0.065,-0.442ZM0.24,-0.211L0.065,-0.211L0.065,-0.608C0.073,-0.609 0.085,-0.611 0.101,-0.614C0.116,-0.616 0.131,-0.617 0.146,-0.617C0.179,-0.617 0.203,-0.611 0.218,-0.6C0.233,-0.589 0.24,-0.567 0.24,-0.534L0.24,-0.211ZM0.432,-0.442L0.607,-0.442L0.607,-0.001C0.6,0.001 0.588,0.003 0.573,0.005C0.558,0.007 0.542,0.008 0.526,0.008C0.491,0.008 0.467,0.002 0.453,-0.011C0.439,-0.023 0.432,-0.044 0.432,-0.075L0.432,-0.442ZM0.607,-0.211L0.432,-0.211L0.432,-0.608C0.44,-0.609 0.452,-0.611 0.468,-0.614C0.483,-0.616 0.498,-0.617 0.513,-0.617C0.546,-0.617 0.57,-0.611 0.585,-0.599C0.6,-0.587 0.607,-0.565 0.607,-0.532L0.607,-0.211ZM0.533,-0.234L0.14,-0.234L0.14,-0.372L0.533,-0.372L0.533,-0.234Z" style="fill:rgb(255,173,39);fill-rule:nonzero;"/>
                </g>
                <g transform="matrix(128.727,0,0,133.176,659.763,229.015)">
                    <path d="M0.065,-0.442L0.24,-0.442L0.24,-0.001C0.233,0.001 0.221,0.003 0.206,0.005C0.191,0.007 0.175,0.008 0.159,0.008C0.124,0.008 0.1,0.002 0.086,-0.011C0.072,-0.023 0.065,-0.044 0.065,-0.075L0.065,-0.442ZM0.24,-0.211L0.065,-0.211L0.065,-0.608C0.073,-0.609 0.085,-0.611 0.101,-0.614C0.116,-0.616 0.131,-0.617 0.146,-0.617C0.179,-0.617 0.203,-0.611 0.218,-0.6C0.233,-0.589 0.24,-0.567 0.24,-0.534L0.24,-0.211Z" style="fill:rgb(255,173,39);fill-rule:nonzero;"/>
                </g>
                <g transform="matrix(128.727,0,0,133.176,699.025,229.015)">
                    <path d="M0.251,-0.124C0.284,-0.124 0.307,-0.129 0.32,-0.14C0.333,-0.151 0.34,-0.163 0.34,-0.176C0.34,-0.189 0.335,-0.2 0.324,-0.207C0.313,-0.215 0.298,-0.222 0.279,-0.229L0.237,-0.243C0.198,-0.256 0.164,-0.271 0.135,-0.285C0.105,-0.301 0.082,-0.32 0.065,-0.344C0.048,-0.368 0.04,-0.399 0.04,-0.438C0.04,-0.495 0.062,-0.54 0.106,-0.574C0.149,-0.608 0.21,-0.625 0.289,-0.625C0.328,-0.625 0.362,-0.621 0.392,-0.614C0.422,-0.607 0.446,-0.596 0.463,-0.581C0.48,-0.566 0.489,-0.546 0.489,-0.523C0.489,-0.506 0.485,-0.492 0.477,-0.479C0.469,-0.466 0.459,-0.456 0.448,-0.447C0.433,-0.456 0.414,-0.465 0.389,-0.471C0.364,-0.478 0.337,-0.482 0.308,-0.482C0.278,-0.482 0.256,-0.478 0.242,-0.469C0.228,-0.461 0.221,-0.451 0.221,-0.438C0.221,-0.428 0.226,-0.42 0.234,-0.413C0.244,-0.407 0.256,-0.401 0.273,-0.396L0.326,-0.379C0.389,-0.359 0.438,-0.333 0.471,-0.302C0.504,-0.27 0.521,-0.227 0.521,-0.174C0.521,-0.117 0.499,-0.071 0.454,-0.035C0.408,0 0.343,0.018 0.257,0.018C0.216,0.018 0.18,0.014 0.147,0.005C0.114,-0.004 0.088,-0.017 0.069,-0.034C0.05,-0.051 0.04,-0.072 0.04,-0.097C0.04,-0.116 0.046,-0.133 0.057,-0.147C0.068,-0.16 0.081,-0.171 0.094,-0.178C0.113,-0.163 0.136,-0.151 0.163,-0.14C0.19,-0.129 0.219,-0.124 0.251,-0.124Z" style="fill:rgb(255,173,39);fill-rule:nonzero;"/>
                </g>
                <g transform="matrix(128.727,0,0,133.176,769.953,229.015)">
                    <path d="M0.237,-0.558C0.237,-0.543 0.236,-0.522 0.235,-0.496C0.234,-0.469 0.233,-0.44 0.232,-0.408C0.23,-0.377 0.227,-0.345 0.224,-0.315C0.221,-0.283 0.217,-0.256 0.212,-0.231C0.207,-0.226 0.197,-0.223 0.184,-0.22C0.17,-0.217 0.158,-0.216 0.149,-0.216C0.13,-0.216 0.114,-0.219 0.101,-0.226C0.088,-0.232 0.079,-0.243 0.076,-0.26C0.073,-0.275 0.071,-0.297 0.068,-0.326C0.065,-0.355 0.063,-0.386 0.061,-0.421C0.059,-0.456 0.058,-0.49 0.057,-0.523C0.056,-0.556 0.055,-0.586 0.055,-0.611C0.084,-0.627 0.116,-0.635 0.151,-0.635C0.178,-0.635 0.2,-0.629 0.215,-0.616C0.23,-0.603 0.237,-0.584 0.237,-0.558ZM0.053,-0.076C0.053,-0.103 0.062,-0.126 0.079,-0.143C0.096,-0.161 0.12,-0.17 0.149,-0.17C0.178,-0.17 0.202,-0.161 0.219,-0.143C0.236,-0.126 0.245,-0.103 0.245,-0.076C0.245,-0.049 0.236,-0.026 0.219,-0.009C0.202,0.009 0.178,0.018 0.149,0.018C0.12,0.018 0.096,0.009 0.079,-0.009C0.062,-0.026 0.053,-0.049 0.053,-0.076Z" style="fill:rgb(255,173,39);fill-rule:nonzero;"/>
                </g>
            </g>
            <g transform="matrix(0.533537,0,0,0.466561,-249.842,-59.5602)">
                <g transform="matrix(89.5833,0,0,102.443,485.688,218.806)">
                    <path d="M0.466,-0.303C0.466,-0.239 0.45,-0.191 0.419,-0.158C0.387,-0.125 0.345,-0.109 0.292,-0.109C0.281,-0.109 0.269,-0.11 0.256,-0.111C0.243,-0.112 0.232,-0.113 0.222,-0.115L0.222,-0.494C0.233,-0.495 0.245,-0.497 0.256,-0.498C0.267,-0.499 0.278,-0.499 0.29,-0.499C0.325,-0.499 0.355,-0.492 0.382,-0.477C0.408,-0.463 0.429,-0.442 0.444,-0.413C0.459,-0.384 0.466,-0.348 0.466,-0.303ZM0.623,-0.306C0.623,-0.377 0.609,-0.436 0.58,-0.483C0.551,-0.53 0.511,-0.565 0.461,-0.588C0.409,-0.611 0.35,-0.622 0.281,-0.622C0.256,-0.622 0.228,-0.621 0.197,-0.618C0.166,-0.615 0.138,-0.61 0.111,-0.601C0.099,-0.596 0.089,-0.591 0.082,-0.584C0.075,-0.577 0.071,-0.566 0.071,-0.553L0.071,-0.075C0.071,-0.043 0.088,-0.021 0.123,-0.008C0.149,0.001 0.178,0.007 0.21,0.01C0.242,0.013 0.269,0.015 0.291,0.015C0.358,0.015 0.416,0.003 0.466,-0.021C0.515,-0.044 0.554,-0.08 0.582,-0.127C0.609,-0.174 0.623,-0.234 0.623,-0.306Z" style="fill:rgb(32,32,32);fill-rule:nonzero;"/>
                </g>
                <g transform="matrix(89.5833,0,0,102.443,545.081,218.806)">
                    <path d="M0.66,-0.304C0.66,-0.235 0.647,-0.176 0.62,-0.129C0.593,-0.081 0.556,-0.045 0.508,-0.02C0.462,0.005 0.408,0.017 0.349,0.017C0.29,0.017 0.237,0.005 0.19,-0.02C0.143,-0.045 0.107,-0.081 0.08,-0.129C0.053,-0.176 0.04,-0.235 0.04,-0.304C0.04,-0.373 0.054,-0.432 0.081,-0.48C0.108,-0.527 0.145,-0.563 0.192,-0.588C0.239,-0.612 0.291,-0.624 0.349,-0.624C0.408,-0.624 0.461,-0.612 0.507,-0.588C0.555,-0.563 0.592,-0.527 0.619,-0.48C0.646,-0.432 0.66,-0.373 0.66,-0.304ZM0.503,-0.304C0.503,-0.368 0.489,-0.417 0.462,-0.45C0.434,-0.483 0.396,-0.5 0.349,-0.5C0.304,-0.5 0.267,-0.484 0.239,-0.451C0.211,-0.418 0.197,-0.369 0.197,-0.304C0.197,-0.239 0.211,-0.19 0.238,-0.157C0.266,-0.124 0.303,-0.107 0.35,-0.107C0.397,-0.107 0.434,-0.124 0.462,-0.157C0.489,-0.19 0.503,-0.239 0.503,-0.304Z" style="fill:rgb(32,32,32);fill-rule:nonzero;"/>
                </g>
                <g transform="matrix(89.5833,0,0,102.443,607.79,218.806)">
                    <path d="M0.66,-0.304C0.66,-0.235 0.647,-0.176 0.62,-0.129C0.593,-0.081 0.556,-0.045 0.508,-0.02C0.462,0.005 0.408,0.017 0.349,0.017C0.29,0.017 0.237,0.005 0.19,-0.02C0.143,-0.045 0.107,-0.081 0.08,-0.129C0.053,-0.176 0.04,-0.235 0.04,-0.304C0.04,-0.373 0.054,-0.432 0.081,-0.48C0.108,-0.527 0.145,-0.563 0.192,-0.588C0.239,-0.612 0.291,-0.624 0.349,-0.624C0.408,-0.624 0.461,-0.612 0.507,-0.588C0.555,-0.563 0.592,-0.527 0.619,-0.48C0.646,-0.432 0.66,-0.373 0.66,-0.304ZM0.503,-0.304C0.503,-0.368 0.489,-0.417 0.462,-0.45C0.434,-0.483 0.396,-0.5 0.349,-0.5C0.304,-0.5 0.267,-0.484 0.239,-0.451C0.211,-0.418 0.197,-0.369 0.197,-0.304C0.197,-0.239 0.211,-0.19 0.238,-0.157C0.266,-0.124 0.303,-0.107 0.35,-0.107C0.397,-0.107 0.434,-0.124 0.462,-0.157C0.489,-0.19 0.503,-0.239 0.503,-0.304Z" style="fill:rgb(32,32,32);fill-rule:nonzero;"/>
                </g>
                <g transform="matrix(89.5833,0,0,102.443,670.498,218.806)">
                    <path d="M0.466,-0.303C0.466,-0.239 0.45,-0.191 0.419,-0.158C0.387,-0.125 0.345,-0.109 0.292,-0.109C0.281,-0.109 0.269,-0.11 0.256,-0.111C0.243,-0.112 0.232,-0.113 0.222,-0.115L0.222,-0.494C0.233,-0.495 0.245,-0.497 0.256,-0.498C0.267,-0.499 0.278,-0.499 0.29,-0.499C0.325,-0.499 0.355,-0.492 0.382,-0.477C0.408,-0.463 0.429,-0.442 0.444,-0.413C0.459,-0.384 0.466,-0.348 0.466,-0.303ZM0.623,-0.306C0.623,-0.377 0.609,-0.436 0.58,-0.483C0.551,-0.53 0.511,-0.565 0.461,-0.588C0.409,-0.611 0.35,-0.622 0.281,-0.622C0.256,-0.622 0.228,-0.621 0.197,-0.618C0.166,-0.615 0.138,-0.61 0.111,-0.601C0.099,-0.596 0.089,-0.591 0.082,-0.584C0.075,-0.577 0.071,-0.566 0.071,-0.553L0.071,-0.075C0.071,-0.043 0.088,-0.021 0.123,-0.008C0.149,0.001 0.178,0.007 0.21,0.01C0.242,0.013 0.269,0.015 0.291,0.015C0.358,0.015 0.416,0.003 0.466,-0.021C0.515,-0.044 0.554,-0.08 0.582,-0.127C0.609,-0.174 0.623,-0.234 0.623,-0.306Z" style="fill:rgb(32,32,32);fill-rule:nonzero;"/>
                </g>
                <g transform="matrix(89.5833,0,0,102.443,729.892,218.806)">
                    <path d="M0.071,-0.421L0.223,-0.421L0.223,-0.006L0.152,0.002C0.127,0.002 0.108,-0.005 0.093,-0.02C0.078,-0.035 0.071,-0.054 0.071,-0.079L0.071,-0.421ZM0.152,0.002L0.152,-0.122L0.466,-0.122C0.471,-0.115 0.475,-0.107 0.478,-0.097C0.481,-0.086 0.483,-0.075 0.483,-0.062C0.483,-0.041 0.478,-0.025 0.469,-0.014C0.46,-0.003 0.447,0.002 0.43,0.002L0.152,0.002ZM0.223,-0.231L0.071,-0.231L0.071,-0.608C0.078,-0.609 0.088,-0.611 0.102,-0.613C0.115,-0.615 0.128,-0.616 0.141,-0.616C0.17,-0.616 0.191,-0.611 0.204,-0.601C0.217,-0.591 0.223,-0.572 0.223,-0.544L0.223,-0.231Z" style="fill:rgb(32,32,32);fill-rule:nonzero;"/>
                </g>
                <g transform="matrix(89.5833,0,0,102.443,775.579,218.806)">
                    <path d="M0.071,-0.424L0.219,-0.424L0.219,-0.006C0.213,-0.005 0.204,-0.003 0.192,-0.001C0.179,0.001 0.166,0.002 0.152,0.002C0.127,0.002 0.108,-0.005 0.093,-0.02C0.078,-0.035 0.071,-0.054 0.071,-0.079L0.071,-0.424ZM0.219,-0.182L0.071,-0.182L0.071,-0.525C0.071,-0.55 0.078,-0.57 0.093,-0.585C0.108,-0.599 0.127,-0.606 0.152,-0.606C0.166,-0.606 0.179,-0.605 0.192,-0.603C0.204,-0.601 0.213,-0.599 0.219,-0.598L0.219,-0.182ZM0.152,-0.249L0.152,-0.369L0.454,-0.369C0.458,-0.362 0.462,-0.354 0.465,-0.344C0.468,-0.334 0.47,-0.323 0.47,-0.311C0.47,-0.29 0.465,-0.274 0.456,-0.264C0.446,-0.254 0.433,-0.249 0.417,-0.249L0.152,-0.249ZM0.152,0.002L0.152,-0.119L0.487,-0.119C0.491,-0.113 0.495,-0.105 0.498,-0.094C0.501,-0.083 0.503,-0.072 0.503,-0.06C0.503,-0.039 0.498,-0.023 0.489,-0.013C0.479,-0.003 0.466,0.002 0.45,0.002L0.152,0.002ZM0.152,-0.486L0.152,-0.606L0.482,-0.606C0.487,-0.6 0.491,-0.592 0.494,-0.582C0.497,-0.572 0.498,-0.561 0.498,-0.549C0.498,-0.528 0.493,-0.512 0.484,-0.501C0.475,-0.491 0.462,-0.486 0.445,-0.486L0.152,-0.486Z" style="fill:rgb(32,32,32);fill-rule:nonzero;"/>
                </g>
            </g>
        </g>
    </g>
</svg>
