<?xml version="1.0" encoding="UTF-8" standalone="no"?>
<!DOCTYPE svg PUBLIC "-//W3C//DTD SVG 1.1//EN" "http://www.w3.org/Graphics/SVG/1.1/DTD/svg11.dtd">
<svg width="100%" height="100%" viewBox="0 0 69 69" version="1.1" xmlns="http://www.w3.org/2000/svg" xmlns:xlink="http://www.w3.org/1999/xlink" xml:space="preserve" xmlns:serif="http://www.serif.com/" style="fill-rule:evenodd;clip-rule:evenodd;stroke-linejoin:round;stroke-miterlimit:2;">
    <g transform="matrix(1,0,0,1,-1796.62,-5.57189)">
        <g transform="matrix(0.268565,0,0,0.268565,1768.33,-22.8611)">
            <path d="M359.987,123.737C359.987,113.869 351.988,105.87 342.12,105.87L123.195,105.87C113.328,105.87 105.328,113.869 105.328,123.737C105.328,123.737 105.328,342.662 105.328,342.662C105.328,352.53 113.328,360.529 123.195,360.529L342.12,360.529C351.988,360.529 359.987,352.53 359.987,342.662L359.987,123.737Z" style="fill:rgb(235,235,235);"/>
        </g>
        <g transform="matrix(0.249722,0,0,0.249722,1772.72,-18.4671)">
            <path d="M359.987,123.737C359.987,113.869 351.988,105.87 342.12,105.87L123.195,105.87C113.328,105.87 105.328,113.869 105.328,123.737C105.328,123.737 105.328,342.662 105.328,342.662C105.328,352.53 113.328,360.529 123.195,360.529L342.12,360.529C351.988,360.529 359.987,352.53 359.987,342.662L359.987,123.737Z" style="fill:rgb(255,173,39);"/>
        </g>
        <rect x="1835.98" y="56.414" width="7.226" height="13.862" style="fill:rgb(235,235,235);"/>
        <g transform="matrix(1,0,0,0.988,2.27374e-13,13.6959)">
            <path d="M1830.82,16.67L1844.16,43.237L1817.47,43.237L1830.82,16.67Z" style="fill:rgb(235,235,235);"/>
        </g>
        <g transform="matrix(0.268565,0,0,0.268565,1768.33,-22.8611)">
            <path d="M351.054,123.737C351.054,118.803 347.054,114.804 342.12,114.804L123.195,114.804C118.261,114.804 114.262,118.803 114.262,123.737L114.262,342.662C114.262,347.596 118.261,351.596 123.195,351.596L342.12,351.596C347.054,351.596 351.054,347.596 351.054,342.662L351.054,123.737ZM276.671,342.662L255.171,342.662L255.171,298.397C255.171,298.397 262.671,304.082 266.005,304.082C269.338,304.082 276.671,298.397 276.671,298.397L276.671,342.662ZM223.6,218.757L189.671,284.374L189.671,288.203C192.978,290.514 196.758,292.671 199.338,292.671C204.894,292.671 216.005,282.671 216.005,282.671C216.005,282.671 227.116,292.671 232.671,292.671C238.227,292.671 249.338,282.671 249.338,282.671C249.338,282.671 260.449,292.671 266.005,292.671C268.585,292.671 272.365,290.514 275.671,288.203L275.671,284.374L241.743,218.757C238.88,219.3 235.833,219.593 232.671,219.593C229.51,219.593 226.463,219.3 223.6,218.757ZM123.195,185.801C158.193,183.151 189.854,186.68 212.698,191.942L210.463,196.265C179.927,195.581 150.742,200.329 123.195,209.296L123.195,248.303C152.28,226.936 182.276,212.805 206.065,204.771L201.137,214.302C169.573,233.788 143.813,259.109 123.195,288.041L123.195,342.662L147.242,342.662C152.279,322.435 159.439,303.563 167.671,286.453L167.671,342.662L182.671,342.662L182.671,282.671L232.671,185.973L282.671,282.671L282.671,342.662L313.935,342.662C308.181,337.022 302.762,331.211 297.671,325.301L297.671,286.937C311.436,299.289 326.356,310.203 342.12,319.773L342.12,271.761C316.27,261.598 293.563,248.509 275.11,235.389L266.459,218.658C290.749,231.245 316.187,239.514 342.12,244.146L342.12,209.628C310.443,212.023 281.501,209.357 259.358,204.926L256.392,199.19C286.371,199.687 315.039,194.952 342.12,186.139L342.12,147.141C310.433,170.416 277.666,185.102 253.022,192.672L250.994,188.75C282.262,171.911 308.286,149.615 329.615,123.737L290.084,123.737C276.597,148.368 261.307,168.583 247.99,182.941L245.996,179.084C245.86,178.822 245.718,178.565 245.568,178.313C256.157,160.729 264.315,142.448 270.317,123.737L245.278,123.737C244.616,142.128 242.426,158.78 239.555,172.646C237.899,171.79 236.078,171.24 234.18,171.049C234.265,154.878 232.829,139.093 230.055,123.737L204.658,123.737C214.251,141.279 221.306,158.081 226.078,172.5C224.442,173.301 222.957,174.397 221.705,175.739C210.887,156.404 197.952,139.114 183.359,123.737L123.4,123.737C164.099,139.769 196.978,163.031 217.721,182.229L215.637,186.258C186.387,168.218 155.167,156.984 123.195,151.275L123.195,185.801Z" style="fill:rgb(32,32,32);"/>
        </g>
    </g>
</svg>
