<?xml version="1.0" encoding="UTF-8" standalone="no"?>
<!DOCTYPE svg PUBLIC "-//W3C//DTD SVG 1.1//EN" "http://www.w3.org/Graphics/SVG/1.1/DTD/svg11.dtd">
<svg width="100%" height="100%" viewBox="0 0 130 207" version="1.1" xmlns="http://www.w3.org/2000/svg" xmlns:xlink="http://www.w3.org/1999/xlink" xml:space="preserve" xmlns:serif="http://www.serif.com/" style="fill-rule:evenodd;clip-rule:evenodd;stroke-linejoin:round;stroke-miterlimit:2;">
    <g transform="matrix(1,0,0,1,-455,-3.90799e-14)">
        <g transform="matrix(1,0,0,1,20,5.68434e-14)">
            <path d="M450,54.883L450,169.837C450,182.069 460.548,192 473.54,192L526.46,192C539.452,192 550,182.069 550,169.837L550,40C550,26.202 538.798,15 525,15L489.883,15L450,54.883Z" style="fill:rgb(235,235,235);"/>
            <path d="M439.393,44.276C436.58,47.089 435,50.904 435,54.883L435,169.837C435,190.093 452.026,207 473.54,207L526.46,207C547.974,207 565,190.093 565,169.837L565,107.431L550,122.431C550,122.431 565,107.431 565,107.431L565,40C565,17.923 547.077,-0 525,-0L489.883,-0C485.904,0 482.089,1.58 479.276,4.393L439.393,44.276ZM450,54.883L450,169.837C450,182.069 460.548,192 473.54,192L526.46,192C539.452,192 550,182.069 550,169.837L550,40C550,26.202 538.798,15 525,15L489.883,15L450,54.883Z" style="fill:rgb(255,173,39);"/>
        </g>
        <g transform="matrix(1,0,0,1,20,5.68434e-14)">
            <path d="M450,54.883L450,169.837C450,182.069 460.548,192 473.54,192L526.46,192C539.452,192 550,182.069 550,169.837L550,40C550,26.202 538.798,15 525,15L489.883,15L450,54.883ZM544,103.349L456,103.349L456,57.368L492.368,21L525,21C535.486,21 544,29.514 544,40L544,103.349Z" style="fill:rgb(32,32,32);"/>
        </g>
    </g>
</svg>
