<?xml version="1.0" encoding="UTF-8" standalone="no"?>
<!DOCTYPE svg PUBLIC "-//W3C//DTD SVG 1.1//EN" "http://www.w3.org/Graphics/SVG/1.1/DTD/svg11.dtd">
<svg width="100%" height="100%" viewBox="0 0 130 207" version="1.1" xmlns="http://www.w3.org/2000/svg" xmlns:xlink="http://www.w3.org/1999/xlink" xml:space="preserve" xmlns:serif="http://www.serif.com/" style="fill-rule:evenodd;clip-rule:evenodd;stroke-linejoin:round;stroke-miterlimit:2;">
    <g transform="matrix(1,0,0,1,-0.0003,-0.0003)">
        <g transform="matrix(1,0,0,1,-308.333,-1.77636e-15)">
            <g transform="matrix(1,0,0,1,308.333,1.77636e-15)">
                <path d="M27.629,206.998C11.929,206.807 0,194.482 0,180.3L0,60C0,27.34 28.711,0 65,0C101.289,0 130,27.34 130,60L130,180.3C130,194.594 117.883,207 102,207L28,207L27.629,206.998Z" style="fill:rgb(255,173,39);"/>
            </g>
        </g>
        <g transform="matrix(1,0,0,1,-308.333,-1.77636e-15)">
            <g transform="matrix(1,0,0,1,308.333,1.77636e-15)">
                <path d="M15.001,142.687L15.001,179C15.001,186.179 20.821,191.999 28,191.999L59.484,191.999C61.293,192.198 63.135,192.301 65,192.301C66.866,192.301 68.708,192.198 70.517,191.999L102,191.999C109.18,191.999 114.999,186.179 114.999,179L114.999,142.687C115,142.559 115.001,142.43 115.001,142.3L115.001,65C115.001,37.405 92.597,15 65,15C37.404,15 15,37.405 15,65C15,65 15,142.3 15,142.3C15,142.43 15,142.559 15.001,142.687ZM109,87.001L21.001,87.001L21.001,65C21.001,40.716 40.716,21 65,21C89.285,21 109,40.716 109,65L109,87.001Z" style="fill:rgb(32,32,32);"/>
            </g>
        </g>
        <g transform="matrix(1,0,0,1,-308.333,-1.77636e-15)">
            <g transform="matrix(1.16667,0,0,1.16667,-242.333,-20.1667)">
                <path d="M490,97C490,97 500.252,103.62 502,109C504.167,115.667 503,129.603 503,137C503,140.432 504.283,145 510,145C515.717,145 518,140.432 518,137C518,130.815 517.246,114.667 519,109C520.109,105.416 522.9,103 528.523,103C534.147,103 535.5,105.333 537,108C538.5,110.667 538.5,115.44 538.5,118.5C538.5,121.187 541.064,125.5 545,125.5C548.936,125.5 551,121.348 551,118.5C551,115.652 550.733,110.522 552,108C555.157,101.715 560.654,97.759 565.438,97L490,97Z" style="fill:rgb(235,235,235);"/>
            </g>
        </g>
    </g>
</svg>
