<?xml version="1.0" encoding="UTF-8" standalone="no"?>
<!DOCTYPE svg PUBLIC "-//W3C//DTD SVG 1.1//EN" "http://www.w3.org/Graphics/SVG/1.1/DTD/svg11.dtd">
<svg width="100%" height="100%" viewBox="0 0 130 207" version="1.1" xmlns="http://www.w3.org/2000/svg" xmlns:xlink="http://www.w3.org/1999/xlink" xml:space="preserve" xmlns:serif="http://www.serif.com/" style="fill-rule:evenodd;clip-rule:evenodd;stroke-linejoin:round;stroke-miterlimit:2;">
    <g transform="matrix(1,0,0,1,-15,0)">
        <g transform="matrix(1,0,0,1,-560,-268.302)">
            <path d="M590,460L590,380L640,283.302L690,380L690,460L590,460Z" style="fill:rgb(235,235,235);"/>
            <path d="M704.993,380.007C705.001,377.645 704.445,375.278 703.324,373.11L653.324,276.412C650.748,271.43 645.608,268.302 640,268.302C634.392,268.302 629.252,271.43 626.676,276.412L576.676,373.11C575.575,375.24 575,377.603 575,380L575,460C575,468.284 581.716,475 590,475L690,475C698.284,475 705,468.284 705,460L705,380L704.993,380.007ZM590,460L590,380L640,283.302L690,380L690,460L590,460Z" style="fill:rgb(255,173,39);"/>
            <g transform="matrix(1,0,0,1,-10,10)">
                <path d="M665.963,304.173C661.339,305.914 655.865,306.921 650,306.921C644.135,306.921 638.661,305.914 634.037,304.173L650,273.302L665.963,304.173Z" style="fill:rgb(32,32,32);"/>
            </g>
            <g transform="matrix(1,0,0,1,-10,10)">
                <path d="M700,370C700,370 688.889,380 683.333,380C677.778,380 666.667,370 666.667,370C666.667,370 655.556,380 650,380C644.444,380 633.333,370 633.333,370C633.333,370 622.222,380 616.667,380C611.111,380 600,370 600,370L600,450L700,450L700,370Z" style="fill:rgb(32,32,32);"/>
            </g>
            <g transform="matrix(1,0,0,1.07124,3.33333,-11.2717)">
                <path d="M680.667,379.931C680.667,379.931 673.333,385.238 670,385.238C666.667,385.238 659.167,379.931 659.167,379.931L659.167,439.931L680.667,439.931L680.667,379.931Z" style="fill:rgb(235,235,235);"/>
            </g>
            <g transform="matrix(1,0,0,1,-10,10)">
                <path d="M606,401.451L600,401.451L600,370L650,273.302L700,370L700,401.451L694,401.451L694,377L693,377L693,371.703C693,371.703 650,288.542 650,288.542L607,371.703L607,377L606,377L606,401.451Z" style="fill:rgb(32,32,32);"/>
            </g>
        </g>
        <g transform="matrix(6.12323e-17,-1,1.53846,9.42036e-17,-163.846,366)">
            <rect x="174" y="126" width="6" height="65" style="fill:rgb(32,32,32);"/>
        </g>
    </g>
</svg>
