<?xml version="1.0" encoding="UTF-8" standalone="no"?>
<!DOCTYPE svg PUBLIC "-//W3C//DTD SVG 1.1//EN" "http://www.w3.org/Graphics/SVG/1.1/DTD/svg11.dtd">
<svg width="100%" height="100%" viewBox="0 0 130 208" version="1.1" xmlns="http://www.w3.org/2000/svg" xmlns:xlink="http://www.w3.org/1999/xlink" xml:space="preserve" xmlns:serif="http://www.serif.com/" style="fill-rule:evenodd;clip-rule:evenodd;stroke-linejoin:round;stroke-miterlimit:2;">
    <g transform="matrix(1,0,0,1,-0.206076,-0.0106872)">
        <g transform="matrix(0.589212,0.284818,-0.317196,0.656193,46.2227,-11.7454)">
            <path d="M100.181,0.001L100,0L99.819,0.001C84.449,0.098 72,12.607 72,28L72,60L66,60C62.689,60 60,62.689 60,66L60,88.302L52.925,88.302C51.31,88.302 50,89.612 50,91.226L50,97.075C50,98.69 51.31,100 52.925,100L72,100L72,229.302C72,231.029 72.559,232.709 73.593,234.092C73.593,234.092 79.234,241.596 81.507,245.687C83.848,249.9 87.572,259.273 87.572,259.273C88.478,261.536 90.366,263.264 92.701,263.964C92.701,263.964 97.575,265.302 100,265.302C102.425,265.302 107.299,263.964 107.299,263.964C109.634,263.264 111.522,261.536 112.428,259.273C112.428,259.273 116.152,249.9 118.493,245.687C120.813,241.511 126.4,234.102 126.4,234.102C127.439,232.717 128,231.033 128,229.302L128,100L147.075,100C148.69,100 150,98.69 150,97.075L150,91.226C150,89.612 148.69,88.302 147.075,88.302L140,88.302L140,66C140,62.689 137.311,60 134,60L128,60L128,28C128,12.607 115.551,0.098 100.181,0.001ZM120,100L80,100L80,229.302C80,229.302 86.053,237.397 88.5,241.802C91,246.302 95,256.302 95,256.302C95,256.302 98.333,257.302 100,257.302C101.667,257.302 105,256.302 105,256.302C105,256.302 109,246.302 111.5,241.802C114,237.302 120,229.302 120,229.302L120,100Z" style="fill:rgb(32,32,32);"/>
            <path d="M48.978,44.433C41.826,49.185 36.978,56.893 36.978,66L36.978,72.648C30.995,76.866 26.978,83.453 26.978,91.226C26.978,91.226 26.978,97.075 26.978,97.075C26.978,109.361 37.013,118.685 48.978,120.389L48.978,229.302C48.978,235.189 50.953,240.9 54.479,245.615C54.49,245.63 54.5,245.644 54.511,245.658C54.511,245.658 59.085,251.638 60.906,254.915C62.85,258.415 65.889,266.22 65.889,266.22C65.894,266.234 65.9,266.247 65.905,266.261C69.296,274.739 76.66,280.947 85.406,283.571C85.594,283.628 85.783,283.682 85.972,283.734C85.972,283.734 95.361,285.974 100,285.974C104.639,285.974 114.028,283.734 114.028,283.734C114.217,283.682 114.406,283.628 114.594,283.571C123.34,280.947 130.704,274.739 134.095,266.261C134.1,266.247 134.106,266.234 134.111,266.22C134.111,266.22 137.15,258.415 139.094,254.915C140.947,251.58 145.464,245.691 145.464,245.691C145.474,245.677 145.485,245.663 145.496,245.649C149.037,240.927 151.022,235.204 151.022,229.302L151.022,120.389C162.987,118.685 173.022,109.361 173.022,97.075C173.022,97.075 173.022,91.226 173.022,91.226C173.022,83.453 169.005,76.866 163.022,72.648L163.022,66C163.022,56.893 158.174,49.185 151.022,44.433L151.022,28C151.022,0.665 127.637,-20.498 100.343,-20.671L100.346,-20.662L99.657,-20.671L98.439,-20.639L98.329,-20.631C71.607,-19.807 48.978,1.111 48.978,28L48.978,44.433ZM100.181,0.001L99.819,0.001C84.449,0.098 72,12.607 72,28L72,60L66,60C62.689,60 60,62.689 60,66L60,88.302L52.925,88.302C51.31,88.302 50,89.612 50,91.226L50,97.075C50,98.69 51.31,100 52.925,100L72,100L72,229.302C72,231.029 72.559,232.709 73.593,234.092C73.593,234.092 79.234,241.596 81.507,245.687C83.848,249.9 87.572,259.273 87.572,259.273C88.478,261.536 90.366,263.264 92.701,263.964C92.701,263.964 97.575,265.302 100,265.302C102.425,265.302 107.299,263.964 107.299,263.964C109.634,263.264 111.522,261.536 112.428,259.273C112.428,259.273 116.152,249.9 118.493,245.687C120.813,241.511 126.4,234.102 126.4,234.102C127.439,232.717 128,231.033 128,229.302L128,100L147.075,100C148.69,100 150,98.69 150,97.075L150,91.226C150,89.612 148.69,88.302 147.075,88.302L140,88.302L140,66C140,62.689 137.311,60 134,60L128,60L128,28C128,12.607 115.551,0.098 100.181,0.001ZM120,100L80,100L80,229.302C80,229.302 86.053,237.397 88.5,241.802C91,246.302 95,256.302 95,256.302C95,256.302 98.333,257.302 100,257.302C101.667,257.302 105,256.302 105,256.302C105,256.302 109,246.302 111.5,241.802C114,237.302 120,229.302 120,229.302L120,100Z" style="fill:rgb(255,173,39);"/>
        </g>
        <g transform="matrix(0.701022,0.338866,-0.445258,0.921119,-286.365,-395.242)">
            <path d="M699.785,267.241L666.165,267.241L666.165,359.354C666.165,359.354 671.252,365.121 673.309,368.259C675.41,371.465 678.772,378.589 678.772,378.589C678.772,378.589 681.574,379.301 682.975,379.301C684.376,379.301 687.177,378.589 687.177,378.589C687.177,378.589 690.539,371.465 692.641,368.259C694.742,365.053 699.785,359.354 699.785,359.354L699.785,267.241Z" style="fill:rgb(235,235,235);"/>
        </g>
        <g transform="matrix(0.882989,0.426826,-0.445258,0.921119,36.5683,-73.4858)">
            <path d="M116,99L116,113.136L124.733,113.136L124.733,102.3C124.733,100.479 123.254,99 121.433,99L116,99Z" style="fill:rgb(235,235,235);"/>
        </g>
        <g transform="matrix(0.827095,0.399807,-0.445258,0.921119,43.052,-70.3516)">
            <path d="M91.863,185.612C91.834,185.299 91.819,184.981 91.819,184.66L91.819,175.34C91.819,169.633 96.453,165 102.16,165C107.867,165 112.5,169.633 112.5,175.34L112.5,184.66C112.5,185.243 112.452,185.816 112.358,186.374L112.358,212.263C110.983,214.146 108.186,218.056 106.806,220.539C105.534,222.829 103.736,227.03 102.725,229.458C102.499,229.498 102.286,229.524 102.11,229.524C101.935,229.524 101.722,229.498 101.496,229.458C100.485,227.029 98.687,222.829 97.415,220.539C96.062,218.105 93.243,214.16 91.862,212.265L91.863,185.612Z" style="fill:rgb(32,32,32);"/>
        </g>
        <g transform="matrix(0.8996,0.434856,-0.445258,0.921119,35.439,-74.0317)">
            <path d="M105,56.523L105,93L116,93L116,70.2C116,63.503 111.288,57.898 105,56.523Z" style="fill:rgb(235,235,235);"/>
        </g>
    </g>
</svg>
