<?xml version="1.0" encoding="UTF-8" standalone="no"?>
<!DOCTYPE svg PUBLIC "-//W3C//DTD SVG 1.1//EN" "http://www.w3.org/Graphics/SVG/1.1/DTD/svg11.dtd">
<svg width="100%" height="100%" viewBox="0 0 1280 720" version="1.1" xmlns="http://www.w3.org/2000/svg" xmlns:xlink="http://www.w3.org/1999/xlink" xml:space="preserve" xmlns:serif="http://www.serif.com/" style="fill-rule:evenodd;clip-rule:evenodd;stroke-linejoin:round;stroke-miterlimit:2;">
    <path d="M120.556,720C228.776,511.077 432.167,399.329 565.281,355.918L551.749,382.085C417.294,463.193 320.913,583.639 255.98,720L120.556,720ZM464.958,720L405.274,720C420.293,664.507 441.209,612.959 464.958,566.482L464.958,720ZM505.352,720L505.352,559.763L640,299.36L774.648,559.763L774.648,720L758.49,720L758.49,602.113C758.49,602.113 738.742,617.422 729.764,617.422C720.789,617.422 700.591,602.113 700.591,602.113L700.591,720L505.352,720ZM842.784,720C833.157,709.888 823.915,699.613 815.042,689.216L815.042,583.168C876.2,638.971 946.027,684.217 1020.67,720L842.784,720ZM1280,591.364C1068.68,617.247 882.717,533.007 761.598,446.581L736.593,398.221C906.408,487.119 1097.97,497.674 1280,462.082L1280,591.364ZM615.572,387.646L524.203,564.349L524.203,574.661C533.109,580.884 543.285,586.693 550.236,586.693C565.195,586.693 595.117,559.763 595.117,559.763C595.117,559.763 625.038,586.693 640,586.693C654.962,586.693 684.883,559.763 684.883,559.763C684.883,559.763 714.805,586.693 729.764,586.693C736.715,586.693 746.891,580.884 755.797,574.661L755.797,564.349L664.428,387.646C656.721,389.108 648.512,389.895 640,389.895C631.488,389.895 623.279,389.108 615.572,387.646ZM0,408.132C206.833,276.475 450.165,287.849 583.809,320.085L577.55,332.187C354.128,324.738 156.067,425.718 0,569.616L0,408.132ZM1280,104.507L1280,265.991C1083.03,391.366 852.961,387.031 716.052,358.495L707.569,342.089C928.906,347.83 1125.12,247.305 1280,104.507ZM1133.23,0C1015.49,187.996 820.51,287.094 697.925,323.438L692.192,312.351C829.602,240.228 930.375,128.912 1000.63,0L1133.23,0ZM0,82.759C265.462,50.25 490.914,191.514 598.036,292.571L592.133,303.984C410.81,189.475 199.649,172.998 0,212.042L0,82.759ZM860.726,0C816.783,129.153 743.151,233.151 683.701,295.932L676.982,282.936C731.83,194.017 763.395,98.089 776.631,0L860.726,0ZM477.513,0C550.885,90.466 597.136,188.295 621.505,263.45C616.787,265.879 612.559,269.231 609.101,273.341C544.827,156.266 451.677,66.472 343.636,0L477.513,0ZM672.722,0C684.202,101.61 675.477,195.456 660.663,264.653C655.983,261.864 650.734,260.022 645.216,259.305C646.242,168.165 629.293,81.358 598.874,0L672.722,0Z" style="fill:rgb(114,114,114);"/>
</svg>
