<?xml version="1.0" encoding="UTF-8" standalone="no"?>
<!DOCTYPE svg PUBLIC "-//W3C//DTD SVG 1.1//EN" "http://www.w3.org/Graphics/SVG/1.1/DTD/svg11.dtd">
<svg width="100%" height="100%" viewBox="0 0 1340 980" version="1.1" xmlns="http://www.w3.org/2000/svg" xmlns:xlink="http://www.w3.org/1999/xlink" xml:space="preserve" xmlns:serif="http://www.serif.com/" style="fill-rule:evenodd;clip-rule:evenodd;stroke-linejoin:round;stroke-miterlimit:1.5;">
    <g transform="matrix(1,0,0,1,-0.0491696,0)">
        <g transform="matrix(1.00007,0,0,1.00099,-3.60869e-06,-0.486474)">
            <g transform="matrix(0.953484,0,0,0.953484,-253.776,-1.64624)">
                <path d="M1018.19,886.648C1018.19,859.428 996.068,837.329 968.823,837.329C941.578,837.329 919.459,859.428 919.459,886.648L919.459,979.707C919.459,1006.93 941.578,1029.03 968.823,1029.03C996.068,1029.03 1018.19,1006.93 1018.19,979.707L1018.19,886.648Z" style="fill:rgb(57,31,12);"/>
            </g>
            <g transform="matrix(0.661477,0,0,0.668912,177.888,257.715)">
                <path d="M815.086,941.6L672.775,941.6L672.775,1004.94C672.775,1044.21 704.658,1076.1 743.93,1076.1C783.202,1076.1 815.086,1044.21 815.086,1004.94L815.086,941.6Z" style="fill:rgb(104,62,32);"/>
            </g>
            <g transform="matrix(0.661477,0,0,0.910638,177.888,24.3293)">
                <rect x="672.775" y="941.6" width="142.311" height="6.343" style="fill:rgb(83,48,23);"/>
            </g>
            <g transform="matrix(0.354426,0,0,0.354426,328.357,577.321)">
                <circle cx="963.93" cy="987.186" r="36.07" style="fill:rgb(153,153,153);"/>
            </g>
            <g transform="matrix(0.77029,0,0,0.77029,96.9364,156.901)">
                <path d="M743.958,959.459C766.344,959.459 784.519,977.634 784.519,1000.02C784.519,1022.41 766.344,1040.58 743.958,1040.58C721.571,1040.58 703.396,1022.41 703.396,1000.02C703.396,977.634 721.571,959.459 743.958,959.459ZM743.958,983.424C753.117,983.424 760.554,990.861 760.554,1000.02C760.554,1009.18 753.117,1016.62 743.958,1016.62C734.798,1016.62 727.361,1009.18 727.361,1000.02C727.361,990.861 734.798,983.424 743.958,983.424Z" style="fill:rgb(230,230,230);"/>
            </g>
            <g transform="matrix(0.77029,0,0,0.77029,96.9364,155.36)">
                <path d="M743.958,959.459C766.344,959.459 784.519,977.634 784.519,1000.02C784.519,1022.41 766.344,1040.58 743.958,1040.58C721.571,1040.58 703.396,1022.41 703.396,1000.02C703.396,977.634 721.571,959.459 743.958,959.459ZM743.958,983.424C753.117,983.424 760.554,990.861 760.554,1000.02C760.554,1009.18 753.117,1016.62 743.958,1016.62C734.798,1016.62 727.361,1009.18 727.361,1000.02C727.361,990.861 734.798,983.424 743.958,983.424Z" style="fill:white;"/>
            </g>
            <g transform="matrix(0.77029,0,0,0.77029,96.9364,158.441)">
                <path d="M743.958,959.459C766.344,959.459 784.519,977.634 784.519,1000.02C784.519,1022.41 766.344,1040.58 743.958,1040.58C721.571,1040.58 703.396,1022.41 703.396,1000.02C703.396,977.634 721.571,959.459 743.958,959.459ZM743.958,983.424C753.117,983.424 760.554,990.861 760.554,1000.02C760.554,1009.18 753.117,1016.62 743.958,1016.62C734.798,1016.62 727.361,1009.18 727.361,1000.02C727.361,990.861 734.798,983.424 743.958,983.424Z" style="fill:rgb(89,89,89);"/>
            </g>
            <g transform="matrix(0.77029,0,0,0.77029,96.9364,156.901)">
                <path d="M743.958,959.459C766.344,959.459 784.519,977.634 784.519,1000.02C784.519,1022.41 766.344,1040.58 743.958,1040.58C721.571,1040.58 703.396,1022.41 703.396,1000.02C703.396,977.634 721.571,959.459 743.958,959.459ZM743.958,983.424C753.117,983.424 760.554,990.861 760.554,1000.02C760.554,1009.18 753.117,1016.62 743.958,1016.62C734.798,1016.62 727.361,1009.18 727.361,1000.02C727.361,990.861 734.798,983.424 743.958,983.424Z" style="fill:rgb(230,230,230);"/>
            </g>
        </g>
        <g transform="matrix(1.00007,0,0,1.00099,-3.60869e-06,-0.486474)">
            <g transform="matrix(1.05628,0,0,1.19118,-12.0924,24.1371)">
                <path d="M1280,47.853C1280,28.328 1262.11,12.477 1240.07,12.477L51.425,12.477C29.387,12.477 11.495,28.328 11.495,47.853L11.495,684.624C11.495,704.148 29.387,720 51.425,720L1240.07,720C1262.11,720 1280,704.148 1280,684.624L1280,47.853Z" style="fill:rgb(57,31,12);"/>
            </g>
            <g transform="matrix(1.05628,0,0,1.19118,-12.0924,18.1371)">
                <path d="M1280,47.853C1280,28.328 1262.11,12.477 1240.07,12.477L51.425,12.477C29.387,12.477 11.495,28.328 11.495,47.853L11.495,684.624C11.495,704.148 29.387,720 51.425,720L1240.07,720C1262.11,720 1280,704.148 1280,684.624L1280,47.853Z" style="fill:rgb(185,144,114);"/>
            </g>
            <g transform="matrix(1.05628,0,0,1.19118,-12.0924,21.1371)">
                <path d="M1280,47.853C1280,28.328 1262.11,12.477 1240.07,12.477L51.425,12.477C29.387,12.477 11.495,28.328 11.495,47.853L11.495,684.624C11.495,704.148 29.387,720 51.425,720L1240.07,720C1262.11,720 1280,704.148 1280,684.624L1280,47.853Z" style="fill:rgb(104,62,32);"/>
            </g>
        </g>
        <g transform="matrix(1,0,0,1.00243,-293.949,-43.5802)">
            <path d="M323.949,891.562L323.93,139.044C323.93,126.021 334.503,115.448 347.526,115.448C347.526,115.448 1580.37,115.448 1580.37,115.448C1593.39,115.448 1603.97,126.021 1603.97,139.044L1603.95,891.562L323.949,891.562Z" style="fill:rgb(166,166,166);"/>
        </g>
        <g transform="matrix(2.85695e-17,-0.466576,1,6.12323e-17,-243.369,1065.25)">
            <path d="M488.834,370.137L222.35,370.137L264.35,422.935L222.35,475.733L488.834,475.733L488.834,370.137Z" style="fill:rgb(208,58,58);"/>
        </g>
        <g transform="matrix(2.62574e-17,-0.428816,1,6.12323e-17,85.262,1053.24)">
            <path d="M488.834,370.137L267.56,370.137L309.56,422.935L267.56,475.733L488.834,475.733L488.834,370.137Z" style="fill:rgb(128,200,225);"/>
        </g>
        <g transform="matrix(3.0774e-17,-0.502577,1,6.12323e-17,636.631,1084.97)">
            <path d="M488.834,370.137L267.56,370.137L309.56,422.935L267.56,475.733L488.834,475.733L488.834,370.137Z" style="fill:rgb(255,173,39);"/>
        </g>
        <g transform="matrix(2.3323e-17,-0.380894,1,6.12323e-17,-243.369,1023.36)">
            <rect x="448.403" y="370.137" width="40.431" height="105.595" style="fill:rgb(180,60,60);"/>
        </g>
        <g transform="matrix(2.32573e-17,-0.37982,1,6.12323e-17,85.262,1029.29)">
            <rect x="448.403" y="370.137" width="40.431" height="105.595" style="fill:rgb(89,170,198);"/>
        </g>
        <g transform="matrix(-7.63539e-17,0.380894,1,-3.12056e-16,636.631,663.76)">
            <rect x="448.403" y="370.137" width="40.431" height="105.595" style="fill:rgb(221,149,31);"/>
        </g>
        <g transform="matrix(1,0,0,1,-293.949,-63.2997)">
            <path d="M323.949,891.562L323.93,139.044C323.93,126.021 334.503,115.448 347.526,115.448C347.526,115.448 1580.37,115.448 1580.37,115.448C1593.39,115.448 1603.97,126.021 1603.97,139.044L1603.95,891.562L323.949,891.562Z" style="fill:white;"/>
        </g>
        <g transform="matrix(1.00007,0,0,1.00099,-3.60869e-06,-0.486474)">
            <g transform="matrix(1,0,0,1,-73.9492,-62.8137)">
                <g transform="matrix(0.936853,0,0,0.936853,78.5293,8.89524)">
                    <circle cx="1243.59" cy="140.865" r="18.858" style="fill:rgb(64,64,64);"/>
                </g>
                <g transform="matrix(2.12953,0,0,1.91694,365.276,-18.5883)">
                    <path d="M422.955,59.807L435.096,59.807C435.096,59.807 430.863,42.718 418.303,42.718C405.744,42.718 402.306,58.175 401.804,61.662C400.746,69.017 404.579,79.581 406.37,84.135C407.328,86.57 408.082,88.982 412.548,88.982C417.013,88.982 418.428,86.302 418.586,83.613C418.853,79.059 413.091,73.731 414.153,61.662C414.153,61.662 415.978,54.365 419.187,54.365C422.397,54.365 422.955,59.807 422.955,59.807Z" style="fill:rgb(191,191,191);"/>
                </g>
                <g transform="matrix(2.12953,0,0,1.91694,363.271,-18.3143)">
                    <path d="M426.631,59.653C424.92,55.75 424.018,54.501 420.933,54.335C423.018,55.502 423.2,56.732 423.948,59.653L426.631,59.653Z" style="fill:rgb(102,102,102);"/>
                </g>
            </g>
            <g transform="matrix(1,0,0,1,-1061.37,-62.8137)">
                <g transform="matrix(0.936853,0,0,0.936853,78.5293,8.89524)">
                    <circle cx="1243.59" cy="140.865" r="18.858" style="fill:rgb(64,64,64);"/>
                </g>
                <g transform="matrix(2.12953,0,0,1.91694,365.276,-18.5883)">
                    <path d="M422.955,59.807L435.096,59.807C435.096,59.807 430.863,42.718 418.303,42.718C405.744,42.718 402.306,58.175 401.804,61.662C400.746,69.017 404.579,79.581 406.37,84.135C407.328,86.57 408.082,88.982 412.548,88.982C417.013,88.982 418.428,86.302 418.586,83.613C418.853,79.059 413.091,73.731 414.153,61.662C414.153,61.662 415.978,54.365 419.187,54.365C422.397,54.365 422.955,59.807 422.955,59.807Z" style="fill:rgb(191,191,191);"/>
                </g>
                <g transform="matrix(2.12953,0,0,1.91694,363.271,-18.3143)">
                    <path d="M426.631,59.653C424.92,55.75 424.018,54.501 420.933,54.335C423.018,55.502 423.2,56.732 423.948,59.653L426.631,59.653Z" style="fill:rgb(102,102,102);"/>
                </g>
            </g>
            <g transform="matrix(1,0,0,1,-962.629,-62.8137)">
                <g transform="matrix(0.936853,0,0,0.936853,78.5293,8.89524)">
                    <circle cx="1243.59" cy="140.865" r="18.858" style="fill:rgb(64,64,64);"/>
                </g>
                <g transform="matrix(2.12953,0,0,1.91694,365.276,-18.5883)">
                    <path d="M422.955,59.807L435.096,59.807C435.096,59.807 430.863,42.718 418.303,42.718C405.744,42.718 402.306,58.175 401.804,61.662C400.746,69.017 404.579,79.581 406.37,84.135C407.328,86.57 408.082,88.982 412.548,88.982C417.013,88.982 418.428,86.302 418.586,83.613C418.853,79.059 413.091,73.731 414.153,61.662C414.153,61.662 415.978,54.365 419.187,54.365C422.397,54.365 422.955,59.807 422.955,59.807Z" style="fill:rgb(191,191,191);"/>
                </g>
                <g transform="matrix(2.12953,0,0,1.91694,363.271,-18.3143)">
                    <path d="M426.631,59.653C424.92,55.75 424.018,54.501 420.933,54.335C423.018,55.502 423.2,56.732 423.948,59.653L426.631,59.653Z" style="fill:rgb(102,102,102);"/>
                </g>
            </g>
            <g transform="matrix(1,0,0,1,-863.887,-62.8137)">
                <g transform="matrix(0.936853,0,0,0.936853,78.5293,8.89524)">
                    <circle cx="1243.59" cy="140.865" r="18.858" style="fill:rgb(64,64,64);"/>
                </g>
                <g transform="matrix(2.12953,0,0,1.91694,365.276,-18.5883)">
                    <path d="M422.955,59.807L435.096,59.807C435.096,59.807 430.863,42.718 418.303,42.718C405.744,42.718 402.306,58.175 401.804,61.662C400.746,69.017 404.579,79.581 406.37,84.135C407.328,86.57 408.082,88.982 412.548,88.982C417.013,88.982 418.428,86.302 418.586,83.613C418.853,79.059 413.091,73.731 414.153,61.662C414.153,61.662 415.978,54.365 419.187,54.365C422.397,54.365 422.955,59.807 422.955,59.807Z" style="fill:rgb(191,191,191);"/>
                </g>
                <g transform="matrix(2.12953,0,0,1.91694,363.271,-18.3143)">
                    <path d="M426.631,59.653C424.92,55.75 424.018,54.501 420.933,54.335C423.018,55.502 423.2,56.732 423.948,59.653L426.631,59.653Z" style="fill:rgb(102,102,102);"/>
                </g>
            </g>
            <g transform="matrix(1,0,0,1,-765.145,-62.8137)">
                <g transform="matrix(0.936853,0,0,0.936853,78.5293,8.89524)">
                    <circle cx="1243.59" cy="140.865" r="18.858" style="fill:rgb(64,64,64);"/>
                </g>
                <g transform="matrix(2.12953,0,0,1.91694,365.276,-18.5883)">
                    <path d="M422.955,59.807L435.096,59.807C435.096,59.807 430.863,42.718 418.303,42.718C405.744,42.718 402.306,58.175 401.804,61.662C400.746,69.017 404.579,79.581 406.37,84.135C407.328,86.57 408.082,88.982 412.548,88.982C417.013,88.982 418.428,86.302 418.586,83.613C418.853,79.059 413.091,73.731 414.153,61.662C414.153,61.662 415.978,54.365 419.187,54.365C422.397,54.365 422.955,59.807 422.955,59.807Z" style="fill:rgb(191,191,191);"/>
                </g>
                <g transform="matrix(2.12953,0,0,1.91694,363.271,-18.3143)">
                    <path d="M426.631,59.653C424.92,55.75 424.018,54.501 420.933,54.335C423.018,55.502 423.2,56.732 423.948,59.653L426.631,59.653Z" style="fill:rgb(102,102,102);"/>
                </g>
            </g>
            <g transform="matrix(1,0,0,1,-666.403,-62.8137)">
                <g transform="matrix(0.936853,0,0,0.936853,78.5293,8.89524)">
                    <circle cx="1243.59" cy="140.865" r="18.858" style="fill:rgb(64,64,64);"/>
                </g>
                <g transform="matrix(2.12953,0,0,1.91694,365.276,-18.5883)">
                    <path d="M422.955,59.807L435.096,59.807C435.096,59.807 430.863,42.718 418.303,42.718C405.744,42.718 402.306,58.175 401.804,61.662C400.746,69.017 404.579,79.581 406.37,84.135C407.328,86.57 408.082,88.982 412.548,88.982C417.013,88.982 418.428,86.302 418.586,83.613C418.853,79.059 413.091,73.731 414.153,61.662C414.153,61.662 415.978,54.365 419.187,54.365C422.397,54.365 422.955,59.807 422.955,59.807Z" style="fill:rgb(191,191,191);"/>
                </g>
                <g transform="matrix(2.12953,0,0,1.91694,363.271,-18.3143)">
                    <path d="M426.631,59.653C424.92,55.75 424.018,54.501 420.933,54.335C423.018,55.502 423.2,56.732 423.948,59.653L426.631,59.653Z" style="fill:rgb(102,102,102);"/>
                </g>
            </g>
            <g transform="matrix(1,0,0,1,-567.66,-62.8137)">
                <g transform="matrix(0.936853,0,0,0.936853,78.5293,8.89524)">
                    <circle cx="1243.59" cy="140.865" r="18.858" style="fill:rgb(64,64,64);"/>
                </g>
                <g transform="matrix(2.12953,0,0,1.91694,365.276,-18.5883)">
                    <path d="M422.955,59.807L435.096,59.807C435.096,59.807 430.863,42.718 418.303,42.718C405.744,42.718 402.306,58.175 401.804,61.662C400.746,69.017 404.579,79.581 406.37,84.135C407.328,86.57 408.082,88.982 412.548,88.982C417.013,88.982 418.428,86.302 418.586,83.613C418.853,79.059 413.091,73.731 414.153,61.662C414.153,61.662 415.978,54.365 419.187,54.365C422.397,54.365 422.955,59.807 422.955,59.807Z" style="fill:rgb(191,191,191);"/>
                </g>
                <g transform="matrix(2.12953,0,0,1.91694,363.271,-18.3143)">
                    <path d="M426.631,59.653C424.92,55.75 424.018,54.501 420.933,54.335C423.018,55.502 423.2,56.732 423.948,59.653L426.631,59.653Z" style="fill:rgb(102,102,102);"/>
                </g>
            </g>
            <g transform="matrix(1,0,0,1,-468.918,-62.8137)">
                <g transform="matrix(0.936853,0,0,0.936853,78.5293,8.89524)">
                    <circle cx="1243.59" cy="140.865" r="18.858" style="fill:rgb(64,64,64);"/>
                </g>
                <g transform="matrix(2.12953,0,0,1.91694,365.276,-18.5883)">
                    <path d="M422.955,59.807L435.096,59.807C435.096,59.807 430.863,42.718 418.303,42.718C405.744,42.718 402.306,58.175 401.804,61.662C400.746,69.017 404.579,79.581 406.37,84.135C407.328,86.57 408.082,88.982 412.548,88.982C417.013,88.982 418.428,86.302 418.586,83.613C418.853,79.059 413.091,73.731 414.153,61.662C414.153,61.662 415.978,54.365 419.187,54.365C422.397,54.365 422.955,59.807 422.955,59.807Z" style="fill:rgb(191,191,191);"/>
                </g>
                <g transform="matrix(2.12953,0,0,1.91694,363.271,-18.3143)">
                    <path d="M426.631,59.653C424.92,55.75 424.018,54.501 420.933,54.335C423.018,55.502 423.2,56.732 423.948,59.653L426.631,59.653Z" style="fill:rgb(102,102,102);"/>
                </g>
            </g>
            <g transform="matrix(1,0,0,1,-370.176,-62.8137)">
                <g transform="matrix(0.936853,0,0,0.936853,78.5293,8.89524)">
                    <circle cx="1243.59" cy="140.865" r="18.858" style="fill:rgb(64,64,64);"/>
                </g>
                <g transform="matrix(2.12953,0,0,1.91694,365.276,-18.5883)">
                    <path d="M422.955,59.807L435.096,59.807C435.096,59.807 430.863,42.718 418.303,42.718C405.744,42.718 402.306,58.175 401.804,61.662C400.746,69.017 404.579,79.581 406.37,84.135C407.328,86.57 408.082,88.982 412.548,88.982C417.013,88.982 418.428,86.302 418.586,83.613C418.853,79.059 413.091,73.731 414.153,61.662C414.153,61.662 415.978,54.365 419.187,54.365C422.397,54.365 422.955,59.807 422.955,59.807Z" style="fill:rgb(191,191,191);"/>
                </g>
                <g transform="matrix(2.12953,0,0,1.91694,363.271,-18.3143)">
                    <path d="M426.631,59.653C424.92,55.75 424.018,54.501 420.933,54.335C423.018,55.502 423.2,56.732 423.948,59.653L426.631,59.653Z" style="fill:rgb(102,102,102);"/>
                </g>
            </g>
            <g transform="matrix(1,0,0,1,-271.434,-62.8137)">
                <g transform="matrix(0.936853,0,0,0.936853,78.5293,8.89524)">
                    <circle cx="1243.59" cy="140.865" r="18.858" style="fill:rgb(64,64,64);"/>
                </g>
                <g transform="matrix(2.12953,0,0,1.91694,365.276,-18.5883)">
                    <path d="M422.955,59.807L435.096,59.807C435.096,59.807 430.863,42.718 418.303,42.718C405.744,42.718 402.306,58.175 401.804,61.662C400.746,69.017 404.579,79.581 406.37,84.135C407.328,86.57 408.082,88.982 412.548,88.982C417.013,88.982 418.428,86.302 418.586,83.613C418.853,79.059 413.091,73.731 414.153,61.662C414.153,61.662 415.978,54.365 419.187,54.365C422.397,54.365 422.955,59.807 422.955,59.807Z" style="fill:rgb(191,191,191);"/>
                </g>
                <g transform="matrix(2.12953,0,0,1.91694,363.271,-18.3143)">
                    <path d="M426.631,59.653C424.92,55.75 424.018,54.501 420.933,54.335C423.018,55.502 423.2,56.732 423.948,59.653L426.631,59.653Z" style="fill:rgb(102,102,102);"/>
                </g>
            </g>
            <g transform="matrix(1,0,0,1,-172.691,-62.8137)">
                <g transform="matrix(0.936853,0,0,0.936853,78.5293,8.89524)">
                    <circle cx="1243.59" cy="140.865" r="18.858" style="fill:rgb(64,64,64);"/>
                </g>
                <g transform="matrix(2.12953,0,0,1.91694,365.276,-18.5883)">
                    <path d="M422.955,59.807L435.096,59.807C435.096,59.807 430.863,42.718 418.303,42.718C405.744,42.718 402.306,58.175 401.804,61.662C400.746,69.017 404.579,79.581 406.37,84.135C407.328,86.57 408.082,88.982 412.548,88.982C417.013,88.982 418.428,86.302 418.586,83.613C418.853,79.059 413.091,73.731 414.153,61.662C414.153,61.662 415.978,54.365 419.187,54.365C422.397,54.365 422.955,59.807 422.955,59.807Z" style="fill:rgb(191,191,191);"/>
                </g>
                <g transform="matrix(2.12953,0,0,1.91694,363.271,-18.3143)">
                    <path d="M426.631,59.653C424.92,55.75 424.018,54.501 420.933,54.335C423.018,55.502 423.2,56.732 423.948,59.653L426.631,59.653Z" style="fill:rgb(102,102,102);"/>
                </g>
            </g>
        </g>
        <g transform="matrix(1.2341,0,0,1.2341,-119.823,-47.9448)">
            <path d="M124.543,127.074L1155.46,127.074" style="fill:none;stroke:rgb(166,166,166);stroke-width:1.62px;stroke-dasharray:6.48,3.24,0,0;"/>
        </g>
        <g transform="matrix(2.28647,0,0,2.44789,-710.674,-308.231)">
            <rect x="323.93" y="170.854" width="559.816" height="294.131" style="fill:white;"/>
        </g>
    </g>
</svg>
