<?xml version="1.0" encoding="UTF-8" standalone="no"?>
<!DOCTYPE svg PUBLIC "-//W3C//DTD SVG 1.1//EN" "http://www.w3.org/Graphics/SVG/1.1/DTD/svg11.dtd">
<svg width="100%" height="100%" viewBox="0 0 1280 720" version="1.1" xmlns="http://www.w3.org/2000/svg" xmlns:xlink="http://www.w3.org/1999/xlink" xml:space="preserve" xmlns:serif="http://www.serif.com/" style="fill-rule:evenodd;clip-rule:evenodd;stroke-linejoin:round;stroke-miterlimit:2;">
    <g transform="matrix(1,0,0,1,393,113)">
        <g transform="matrix(1,0,0,1,-393,-113)">
            <path d="M129.301,720C238.407,519.508 435.698,411.654 565.66,369.27L552.197,395.305C422.205,473.72 327.984,589.092 263.501,720L129.301,720ZM465.846,720L409.68,720C424.332,669.146 443.87,621.774 465.846,578.767L465.846,720ZM506.036,720L506.036,572.082L640,313L773.964,572.082L773.964,720L757.889,720L757.889,614.216C757.889,614.216 738.241,629.448 729.309,629.448C720.379,629.448 700.284,614.216 700.284,614.216L700.284,720L506.036,720ZM831.03,720C825.265,713.684 819.638,707.304 814.154,700.878L814.154,595.368C868.622,645.068 930.003,686.35 995.553,720L831.03,720ZM1280,603.117C1068.4,630.128 882.099,545.899 760.981,459.474L736.103,411.359C906.082,500.343 1097.96,510.432 1280,474.256L1280,603.117ZM615.696,400.838L524.791,576.645L524.791,586.904C533.651,593.096 543.776,598.875 550.691,598.875C565.575,598.875 595.344,572.082 595.344,572.082C595.344,572.082 625.114,598.875 640,598.875C654.886,598.875 684.656,572.082 684.656,572.082C684.656,572.082 714.425,598.875 729.309,598.875C736.224,598.875 746.349,593.096 755.209,586.904L755.209,576.645L664.304,400.838C656.636,402.293 648.469,403.075 640,403.075C631.531,403.075 623.364,402.293 615.696,400.838ZM-0,423.301C206.508,290.114 450.436,301.38 584.094,333.62L577.867,345.661C354.031,338.198 155.781,440.12 -0,584.89L-0,423.301ZM1280,116.129L1280,277.719C1083.31,404.586 852.634,400.383 715.666,371.835L707.226,355.512C928.997,361.264 1125.42,259.789 1280,116.129ZM1139.94,0C1023.99,196.894 822.849,299.831 697.632,336.956L691.927,325.925C834.008,251.35 936.719,134.659 1006.88,0L1139.94,0ZM-0,97.904C265.509,63.993 491.231,205.287 598.249,306.246L592.376,317.6C410.995,203.055 199.605,187.104 -0,226.764L-0,97.904ZM864.587,0C821.627,135.515 744.937,244.689 683.48,309.589L676.795,296.659C734.175,203.634 765.943,102.898 777.836,0L864.587,0ZM465.724,0C546.074,94.11 595.986,198.279 621.599,277.272C616.905,279.688 612.698,283.024 609.258,287.113C540.279,161.469 437.874,67.407 319.538,0L465.724,0ZM670.699,0C684.828,106.89 676.031,206.193 660.558,278.469C655.902,275.694 650.68,273.861 645.19,273.148C646.274,176.766 627.155,85.255 593.233,0L670.699,0Z" style="fill:rgb(245,245,245);"/>
        </g>
    </g>
</svg>
